ISO-10303-21;
HEADER;
FILE_DESCRIPTION (( 'STEP AP214' ),
    '1' );
FILE_NAME ('零件5.STEP',
    '2025-04-02T03:28:24',
    ( '' ),
    ( '' ),
    'SwSTEP 2.0',
    'SolidWorks 2021',
    '' );
FILE_SCHEMA (( 'AUTOMOTIVE_DESIGN' ));
ENDSEC;

DATA;
#1 = SURFACE_STYLE_FILL_AREA ( #130 ) ;
#2 = ADVANCED_FACE ( 'NONE', ( #309 ), #79, .F. ) ;
#3 = DIRECTION ( 'NONE',  ( 1.000000000000000000, 0.000000000000000000, 0.000000000000000000 ) ) ;
#4 = AXIS2_PLACEMENT_3D ( 'NONE', #164, #166, #215 ) ;
#5 = ORIENTED_EDGE ( 'NONE', *, *, #267, .F. ) ;
#6 = EDGE_CURVE ( 'NONE', #18, #121, #254, .T. ) ;
#7 = CIRCLE ( 'NONE', #181, 9.500000000000001776 ) ;
#8 = ORIENTED_EDGE ( 'NONE', *, *, #225, .T. ) ;
#9 = ORIENTED_EDGE ( 'NONE', *, *, #42, .F. ) ;
#10 = DIRECTION ( 'NONE',  ( 1.000000000000000000, 0.000000000000000000, 0.000000000000000000 ) ) ;
#11 = ORIENTED_EDGE ( 'NONE', *, *, #303, .F. ) ;
#12 = DIRECTION ( 'NONE',  ( 0.000000000000000000, 0.000000000000000000, 1.000000000000000000 ) ) ;
#13 = ORIENTED_EDGE ( 'NONE', *, *, #57, .T. ) ;
#14 = ADVANCED_FACE ( 'NONE', ( #17 ), #84, .T. ) ;
#15 = FACE_OUTER_BOUND ( 'NONE', #105, .T. ) ;
#16 = ORIENTED_EDGE ( 'NONE', *, *, #148, .F. ) ;
#17 = FACE_OUTER_BOUND ( 'NONE', #74, .T. ) ;
#18 = VERTEX_POINT ( 'NONE', #283 ) ;
#19 =( NAMED_UNIT ( * ) PLANE_ANGLE_UNIT ( ) SI_UNIT ( $, .RADIAN. ) );
#20 = DIRECTION ( 'NONE',  ( 1.000000000000000000, 0.000000000000000000, 0.000000000000000000 ) ) ;
#21 = CIRCLE ( 'NONE', #91, 9.500000000000001776 ) ;
#22 = FACE_OUTER_BOUND ( 'NONE', #100, .T. ) ;
#23 = DIRECTION ( 'NONE',  ( -0.000000000000000000, -0.000000000000000000, -1.000000000000000000 ) ) ;
#24 = UNCERTAINTY_MEASURE_WITH_UNIT (LENGTH_MEASURE( 1.000000000000000082E-05 ), #308, 'distance_accuracy_value', 'NONE');
#25 = CARTESIAN_POINT ( 'NONE',  ( -10.50000000000000000, 1.285879139104720831E-15, 1.499999999999999556 ) ) ;
#26 = CARTESIAN_POINT ( 'NONE',  ( -11.00000000000000000, 1.347111479062088405E-15, 1.000000000000000888 ) ) ;
#27 = ORIENTED_EDGE ( 'NONE', *, *, #210, .T. ) ;
#28 = LINE ( 'NONE', #275, #234 ) ;
#29 = CIRCLE ( 'NONE', #209, 11.99999999999999822 ) ;
#30 = EDGE_LOOP ( 'NONE', ( #256, #13, #198, #253 ) ) ;
#31 = FACE_OUTER_BOUND ( 'NONE', #248, .T. ) ;
#32 = EDGE_LOOP ( 'NONE', ( #50, #206, #16, #5 ) ) ;
#33 = AXIS2_PLACEMENT_3D ( 'NONE', #132, #180, #156 ) ;
#34 = SURFACE_STYLE_FILL_AREA ( #108 ) ;
#35 = FILL_AREA_STYLE_COLOUR ( '', #161 ) ;
#36 = SURFACE_STYLE_USAGE ( .BOTH. , #288 ) ;
#37 = CIRCLE ( 'NONE', #218, 1.000000000000000888 ) ;
#38 = EDGE_LOOP ( 'NONE', ( #11, #276 ) ) ;
#39 = DIRECTION ( 'NONE',  ( -0.000000000000000000, -0.000000000000000000, 1.000000000000000000 ) ) ;
#40 = AXIS2_PLACEMENT_3D ( 'NONE', #43, #23, #220 ) ;
#41 = DIRECTION ( 'NONE',  ( -0.000000000000000000, -0.000000000000000000, -1.000000000000000000 ) ) ;
#42 = EDGE_CURVE ( 'NONE', #158, #18, #291, .T. ) ;
#43 = CARTESIAN_POINT ( 'NONE',  ( 0.000000000000000000, 0.000000000000000000, 15.00000000000000000 ) ) ;
#44 = DIRECTION ( 'NONE',  ( 0.000000000000000000, 0.000000000000000000, 1.000000000000000000 ) ) ;
#45 = LINE ( 'NONE', #119, #239 ) ;
#46 = TOROIDAL_SURFACE ( 'NONE', #87, 11.00000000000000000, 1.000000000000000000 ) ;
#47 = CARTESIAN_POINT ( 'NONE',  ( 0.000000000000000000, 0.000000000000000000, 15.00000000000000000 ) ) ;
#48 = VERTEX_POINT ( 'NONE', #235 ) ;
#49 = CARTESIAN_POINT ( 'NONE',  ( 0.000000000000000000, 0.000000000000000000, 15.00000000000000000 ) ) ;
#50 = ORIENTED_EDGE ( 'NONE', *, *, #210, .F. ) ;
#51 = DIRECTION ( 'NONE',  ( 0.000000000000000000, -1.000000000000000000, 0.000000000000000000 ) ) ;
#52 = EDGE_CURVE ( 'NONE', #106, #231, #295, .T. ) ;
#53 = DIRECTION ( 'NONE',  ( -0.000000000000000000, -0.000000000000000000, -1.000000000000000000 ) ) ;
#54 = CARTESIAN_POINT ( 'NONE',  ( -10.50000000000000000, 1.285879139104720831E-15, 15.00000000000000000 ) ) ;
#55 = DIRECTION ( 'NONE',  ( -1.000000000000000000, 1.224646799147351482E-16, 0.000000000000000000 ) ) ;
#56 = ORIENTED_EDGE ( 'NONE', *, *, #204, .T. ) ;
#57 = EDGE_CURVE ( 'NONE', #48, #231, #184, .T. ) ;
#58 = ORIENTED_EDGE ( 'NONE', *, *, #243, .F. ) ;
#59 = TOROIDAL_SURFACE ( 'NONE', #245, 9.500000000000001776, 1.000000000000000000 ) ;
#60 = DIRECTION ( 'NONE',  ( 1.224646799147353207E-16, 1.000000000000000000, -0.000000000000000000 ) ) ;
#61 = CARTESIAN_POINT ( 'NONE',  ( 0.000000000000000000, 0.000000000000000000, 1.499999999999999556 ) ) ;
#62 = MECHANICAL_DESIGN_GEOMETRIC_PRESENTATION_REPRESENTATION (  '', ( #286 ), #139 ) ;
#63 = PRODUCT_DEFINITION_SHAPE ( 'NONE', 'NONE',  #237 ) ;
#64 = DIRECTION ( 'NONE',  ( 1.000000000000000000, 0.000000000000000000, 0.000000000000000000 ) ) ;
#65 = CARTESIAN_POINT ( 'NONE',  ( -11.99999999999999822, 0.000000000000000000, 1.000000000000000888 ) ) ;
#66 = CARTESIAN_POINT ( 'NONE',  ( 0.000000000000000000, 0.000000000000000000, 15.00000000000000000 ) ) ;
#67 = CARTESIAN_POINT ( 'NONE',  ( 0.000000000000000000, 0.000000000000000000, 1.000000000000000888 ) ) ;
#68 = CARTESIAN_POINT ( 'NONE',  ( 11.00000000000000000, 0.000000000000000000, 1.000000000000000888 ) ) ;
#69 = MANIFOLD_SOLID_BREP ( '圆角1', #104 ) ;
#70 = COLOUR_RGB ( '',1.000000000000000000, 1.000000000000000000, 1.000000000000000000 ) ;
#71 = ORIENTED_EDGE ( 'NONE', *, *, #57, .F. ) ;
#72 = VERTEX_POINT ( 'NONE', #320 ) ;
#73 = AXIS2_PLACEMENT_3D ( 'NONE', #82, #271, #317 ) ;
#74 = EDGE_LOOP ( 'NONE', ( #287, #56 ) ) ;
#75 = PRODUCT_RELATED_PRODUCT_CATEGORY ( 'part', '', ( #78 ) ) ;
#76 = DIRECTION ( 'NONE',  ( 0.000000000000000000, 0.000000000000000000, 1.000000000000000000 ) ) ;
#77 = AXIS2_PLACEMENT_3D ( 'NONE', #68, #51, #123 ) ;
#78 = PRODUCT ( '零件5', '零件5', '', ( #312 ) ) ;
#79 = PLANE ( 'NONE',  #227 ) ;
#80 = AXIS2_PLACEMENT_3D ( 'NONE', #241, #117, #244 ) ;
#81 = DIRECTION ( 'NONE',  ( -0.000000000000000000, -0.000000000000000000, -1.000000000000000000 ) ) ;
#82 = CARTESIAN_POINT ( 'NONE',  ( 0.000000000000000000, 0.000000000000000000, 0.000000000000000000 ) ) ;
#83 = CARTESIAN_POINT ( 'NONE',  ( 0.000000000000000000, 0.000000000000000000, 1.000000000000000888 ) ) ;
#84 = PLANE ( 'NONE',  #33 ) ;
#85 = STYLED_ITEM ( 'NONE', ( #111 ), #146 ) ;
#86 = DIRECTION ( 'NONE',  ( 1.000000000000000000, 0.000000000000000000, 0.000000000000000000 ) ) ;
#87 = AXIS2_PLACEMENT_3D ( 'NONE', #67, #268, #20 ) ;
#88 = FACE_OUTER_BOUND ( 'NONE', #124, .T. ) ;
#89 = VECTOR ( 'NONE', #81, 1000.000000000000000 ) ;
#90 =( NAMED_UNIT ( * ) SI_UNIT ( $, .STERADIAN. ) SOLID_ANGLE_UNIT ( ) );
#91 = AXIS2_PLACEMENT_3D ( 'NONE', #61, #135, #188 ) ;
#92 = EDGE_CURVE ( 'NONE', #307, #158, #7, .T. ) ;
#93 = DIRECTION ( 'NONE',  ( -1.000000000000000000, 1.224646799147351482E-16, 0.000000000000000000 ) ) ;
#94 = CYLINDRICAL_SURFACE ( 'NONE', #193, 11.99999999999999822 ) ;
#95 = ORIENTED_EDGE ( 'NONE', *, *, #267, .T. ) ;
#96 = CIRCLE ( 'NONE', #114, 11.00000000000000000 ) ;
#97 = VERTEX_POINT ( 'NONE', #293 ) ;
#98 = ORIENTED_EDGE ( 'NONE', *, *, #310, .T. ) ;
#99 = EDGE_CURVE ( 'NONE', #263, #223, #170, .T. ) ;
#100 = EDGE_LOOP ( 'NONE', ( #58, #311, #95, #264 ) ) ;
#101 = AXIS2_PLACEMENT_3D ( 'NONE', #274, #217, #115 ) ;
#102 = DIRECTION ( 'NONE',  ( 1.000000000000000000, 0.000000000000000000, 0.000000000000000000 ) ) ;
#103 = DIRECTION ( 'NONE',  ( -1.000000000000000000, 0.000000000000000000, 0.000000000000000000 ) ) ;
#104 = CLOSED_SHELL ( 'NONE', ( #255, #171, #273, #129, #284, #298, #2, #134, #14, #112, #165 ) ) ;
#105 = EDGE_LOOP ( 'NONE', ( #213, #232, #196, #301 ) ) ;
#106 = VERTEX_POINT ( 'NONE', #65 ) ;
#107 =( GEOMETRIC_REPRESENTATION_CONTEXT ( 3 ) GLOBAL_UNCERTAINTY_ASSIGNED_CONTEXT ( ( #216 ) ) GLOBAL_UNIT_ASSIGNED_CONTEXT ( ( #233, #230, #160 ) ) REPRESENTATION_CONTEXT ( 'NONE', 'WORKASPACE' ) );
#108 = FILL_AREA_STYLE ('',( #285 ) ) ;
#109 = CARTESIAN_POINT ( 'NONE',  ( -9.500000000000001776, 1.163414459189985682E-15, 2.499999999999999556 ) ) ;
#110 = CIRCLE ( 'NONE', #262, 10.50000000000000000 ) ;
#111 = PRESENTATION_STYLE_ASSIGNMENT (( #314 ) ) ;
#112 = ADVANCED_FACE ( 'NONE', ( #22 ), #136, .T. ) ;
#113 = CARTESIAN_POINT ( 'NONE',  ( 0.000000000000000000, 0.000000000000000000, 0.000000000000000000 ) ) ;
#114 = AXIS2_PLACEMENT_3D ( 'NONE', #113, #191, #214 ) ;
#115 = DIRECTION ( 'NONE',  ( 1.000000000000000000, 0.000000000000000000, 0.000000000000000000 ) ) ;
#116 = EDGE_CURVE ( 'NONE', #97, #106, #45, .T. ) ;
#117 = DIRECTION ( 'NONE',  ( 0.000000000000000000, 0.000000000000000000, 1.000000000000000000 ) ) ;
#118 = CARTESIAN_POINT ( 'NONE',  ( -9.500000000000001776, 1.224646799147353454E-15, 1.499999999999999556 ) ) ;
#119 = CARTESIAN_POINT ( 'NONE',  ( -11.99999999999999822, 0.000000000000000000, 15.00000000000000000 ) ) ;
#120 = CARTESIAN_POINT ( 'NONE',  ( 0.000000000000000000, 0.000000000000000000, 2.499999999999999556 ) ) ;
#121 = VERTEX_POINT ( 'NONE', #272 ) ;
#122 = EDGE_CURVE ( 'NONE', #307, #121, #142, .T. ) ;
#123 = DIRECTION ( 'NONE',  ( 0.000000000000000000, 0.000000000000000000, -1.000000000000000000 ) ) ;
#124 = EDGE_LOOP ( 'NONE', ( #259, #200, #98, #278 ) ) ;
#125 = CIRCLE ( 'NONE', #77, 1.000000000000000000 ) ;
#126 = DIRECTION ( 'NONE',  ( -0.000000000000000000, -0.000000000000000000, -1.000000000000000000 ) ) ;
#127 = DIRECTION ( 'NONE',  ( 1.000000000000000000, 0.000000000000000000, 0.000000000000000000 ) ) ;
#128 = ORIENTED_EDGE ( 'NONE', *, *, #6, .F. ) ;
#129 = ADVANCED_FACE ( 'NONE', ( #323 ), #141, .T. ) ;
#130 = FILL_AREA_STYLE ('',( #35 ) ) ;
#131 = AXIS2_PLACEMENT_3D ( 'NONE', #163, #137, #240 ) ;
#132 = CARTESIAN_POINT ( 'NONE',  ( 0.000000000000000000, 0.000000000000000000, 1.499999999999999556 ) ) ;
#133 = DIRECTION ( 'NONE',  ( 1.000000000000000000, 0.000000000000000000, 0.000000000000000000 ) ) ;
#134 = ADVANCED_FACE ( 'NONE', ( #88 ), #321, .F. ) ;
#135 = DIRECTION ( 'NONE',  ( 0.000000000000000000, 0.000000000000000000, 1.000000000000000000 ) ) ;
#136 = TOROIDAL_SURFACE ( 'NONE', #101, 11.00000000000000000, 1.000000000000000000 ) ;
#137 = DIRECTION ( 'NONE',  ( -0.000000000000000000, -0.000000000000000000, -1.000000000000000000 ) ) ;
#138 = DIRECTION ( 'NONE',  ( 1.000000000000000000, 0.000000000000000000, 0.000000000000000000 ) ) ;
#139 =( GEOMETRIC_REPRESENTATION_CONTEXT ( 3 ) GLOBAL_UNCERTAINTY_ASSIGNED_CONTEXT ( ( #140 ) ) GLOBAL_UNIT_ASSIGNED_CONTEXT ( ( #265, #19, #90 ) ) REPRESENTATION_CONTEXT ( 'NONE', 'WORKASPACE' ) );
#140 = UNCERTAINTY_MEASURE_WITH_UNIT (LENGTH_MEASURE( 1.000000000000000082E-05 ), #265, 'distance_accuracy_value', 'NONE');
#141 = CYLINDRICAL_SURFACE ( 'NONE', #40, 11.99999999999999822 ) ;
#142 = CIRCLE ( 'NONE', #4, 1.000000000000000000 ) ;
#143 = EDGE_CURVE ( 'NONE', #97, #48, #29, .T. ) ;
#144 = CARTESIAN_POINT ( 'NONE',  ( 0.000000000000000000, 0.000000000000000000, 15.00000000000000000 ) ) ;
#145 = VERTEX_POINT ( 'NONE', #294 ) ;
#146 = ADVANCED_BREP_SHAPE_REPRESENTATION ( '零件5', ( #69, #73 ), #183 ) ;
#147 = PLANE ( 'NONE',  #302 ) ;
#148 = EDGE_CURVE ( 'NONE', #231, #106, #186, .T. ) ;
#149 = EDGE_LOOP ( 'NONE', ( #197, #27 ) ) ;
#150 = ORIENTED_EDGE ( 'NONE', *, *, #204, .F. ) ;
#151 = DIRECTION ( 'NONE',  ( -0.000000000000000000, -0.000000000000000000, 1.000000000000000000 ) ) ;
#152 = DIRECTION ( 'NONE',  ( 1.000000000000000000, 0.000000000000000000, 0.000000000000000000 ) ) ;
#153 = CARTESIAN_POINT ( 'NONE',  ( 11.99999999999999822, 1.469576158976823750E-15, 15.00000000000000000 ) ) ;
#154 = CARTESIAN_POINT ( 'NONE',  ( 0.000000000000000000, 0.000000000000000000, 15.00000000000000000 ) ) ;
#155 = AXIS2_PLACEMENT_3D ( 'NONE', #281, #53, #133 ) ;
#156 = DIRECTION ( 'NONE',  ( 1.000000000000000000, 0.000000000000000000, -0.000000000000000000 ) ) ;
#157 = CIRCLE ( 'NONE', #199, 10.50000000000000000 ) ;
#158 = VERTEX_POINT ( 'NONE', #118 ) ;
#159 = APPLICATION_PROTOCOL_DEFINITION ( 'draft international standard', 'automotive_design', 1998, #290 ) ;
#160 =( NAMED_UNIT ( * ) SI_UNIT ( $, .STERADIAN. ) SOLID_ANGLE_UNIT ( ) );
#161 = COLOUR_RGB ( '',1.000000000000000000, 1.000000000000000000, 1.000000000000000000 ) ;
#162 = DIRECTION ( 'NONE',  ( -0.000000000000000000, -0.000000000000000000, 1.000000000000000000 ) ) ;
#163 = CARTESIAN_POINT ( 'NONE',  ( 0.000000000000000000, 0.000000000000000000, 0.000000000000000000 ) ) ;
#164 = CARTESIAN_POINT ( 'NONE',  ( 9.500000000000001776, 0.000000000000000000, 2.499999999999999556 ) ) ;
#165 = ADVANCED_FACE ( 'NONE', ( #219 ), #252, .F. ) ;
#166 = DIRECTION ( 'NONE',  ( 0.000000000000000000, -1.000000000000000000, 0.000000000000000000 ) ) ;
#167 = LINE ( 'NONE', #25, #299 ) ;
#168 = FACE_OUTER_BOUND ( 'NONE', #177, .T. ) ;
#169 = AXIS2_PLACEMENT_3D ( 'NONE', #187, #44, #86 ) ;
#170 = CIRCLE ( 'NONE', #80, 10.50000000000000000 ) ;
#171 = ADVANCED_FACE ( 'NONE', ( #289 ), #46, .T. ) ;
#172 = ORIENTED_EDGE ( 'NONE', *, *, #250, .F. ) ;
#173 = AXIS2_PLACEMENT_3D ( 'NONE', #47, #76, #178 ) ;
#174 = ORIENTED_EDGE ( 'NONE', *, *, #92, .F. ) ;
#175 = ORIENTED_EDGE ( 'NONE', *, *, #122, .F. ) ;
#176 = DIRECTION ( 'NONE',  ( 0.000000000000000000, 0.000000000000000000, 1.000000000000000000 ) ) ;
#177 = EDGE_LOOP ( 'NONE', ( #150, #279, #172, #175 ) ) ;
#178 = DIRECTION ( 'NONE',  ( 1.000000000000000000, 0.000000000000000000, 0.000000000000000000 ) ) ;
#179 = CARTESIAN_POINT ( 'NONE',  ( 0.000000000000000000, 0.000000000000000000, 0.000000000000000000 ) ) ;
#180 = DIRECTION ( 'NONE',  ( 0.000000000000000000, 0.000000000000000000, 1.000000000000000000 ) ) ;
#181 = AXIS2_PLACEMENT_3D ( 'NONE', #261, #189, #296 ) ;
#182 = EDGE_CURVE ( 'NONE', #72, #145, #96, .T. ) ;
#183 =( GEOMETRIC_REPRESENTATION_CONTEXT ( 3 ) GLOBAL_UNCERTAINTY_ASSIGNED_CONTEXT ( ( #24 ) ) GLOBAL_UNIT_ASSIGNED_CONTEXT ( ( #308, #260, #228 ) ) REPRESENTATION_CONTEXT ( 'NONE', 'WORKASPACE' ) );
#184 = LINE ( 'NONE', #153, #89 ) ;
#185 = PRODUCT_DEFINITION_FORMATION_WITH_SPECIFIED_SOURCE ( '任何', '', #78, .NOT_KNOWN. ) ;
#186 = CIRCLE ( 'NONE', #169, 11.99999999999999822 ) ;
#187 = CARTESIAN_POINT ( 'NONE',  ( 0.000000000000000000, 0.000000000000000000, 1.000000000000000888 ) ) ;
#188 = DIRECTION ( 'NONE',  ( 1.000000000000000000, 0.000000000000000000, 0.000000000000000000 ) ) ;
#189 = DIRECTION ( 'NONE',  ( 0.000000000000000000, 0.000000000000000000, 1.000000000000000000 ) ) ;
#190 = DIRECTION ( 'NONE',  ( 1.000000000000000000, 0.000000000000000000, 0.000000000000000000 ) ) ;
#191 = DIRECTION ( 'NONE',  ( -0.000000000000000000, -0.000000000000000000, -1.000000000000000000 ) ) ;
#192 = EDGE_CURVE ( 'NONE', #18, #263, #167, .T. ) ;
#193 = AXIS2_PLACEMENT_3D ( 'NONE', #154, #126, #103 ) ;
#194 = SURFACE_SIDE_STYLE ('',( #1 ) ) ;
#195 = FACE_BOUND ( 'NONE', #38, .T. ) ;
#196 = ORIENTED_EDGE ( 'NONE', *, *, #99, .T. ) ;
#197 = ORIENTED_EDGE ( 'NONE', *, *, #182, .T. ) ;
#198 = ORIENTED_EDGE ( 'NONE', *, *, #148, .T. ) ;
#199 = AXIS2_PLACEMENT_3D ( 'NONE', #120, #222, #102 ) ;
#200 = ORIENTED_EDGE ( 'NONE', *, *, #6, .T. ) ;
#201 = DIRECTION ( 'NONE',  ( 1.000000000000000000, 0.000000000000000000, -0.000000000000000000 ) ) ;
#202 = ORIENTED_EDGE ( 'NONE', *, *, #52, .T. ) ;
#203 = PRESENTATION_LAYER_ASSIGNMENT (  '', '', ( #286 ) ) ;
#204 = EDGE_CURVE ( 'NONE', #158, #307, #21, .T. ) ;
#205 = CARTESIAN_POINT ( 'NONE',  ( 0.000000000000000000, 0.000000000000000000, 2.499999999999999556 ) ) ;
#206 = ORIENTED_EDGE ( 'NONE', *, *, #243, .T. ) ;
#207 = DIRECTION ( 'NONE',  ( 0.000000000000000000, 0.000000000000000000, 1.000000000000000000 ) ) ;
#208 = EDGE_LOOP ( 'NONE', ( #316, #8 ) ) ;
#209 = AXIS2_PLACEMENT_3D ( 'NONE', #66, #246, #190 ) ;
#210 = EDGE_CURVE ( 'NONE', #145, #72, #257, .T. ) ;
#211 = PRESENTATION_STYLE_ASSIGNMENT (( #36 ) ) ;
#212 = DIRECTION ( 'NONE',  ( 0.000000000000000000, 0.000000000000000000, 1.000000000000000000 ) ) ;
#213 = ORIENTED_EDGE ( 'NONE', *, *, #250, .T. ) ;
#214 = DIRECTION ( 'NONE',  ( 1.000000000000000000, 0.000000000000000000, 0.000000000000000000 ) ) ;
#215 = DIRECTION ( 'NONE',  ( 0.000000000000000000, 0.000000000000000000, -1.000000000000000000 ) ) ;
#216 = UNCERTAINTY_MEASURE_WITH_UNIT (LENGTH_MEASURE( 1.000000000000000082E-05 ), #233, 'distance_accuracy_value', 'NONE');
#217 = DIRECTION ( 'NONE',  ( 0.000000000000000000, 0.000000000000000000, 1.000000000000000000 ) ) ;
#218 = AXIS2_PLACEMENT_3D ( 'NONE', #26, #277, #93 ) ;
#219 = FACE_OUTER_BOUND ( 'NONE', #305, .T. ) ;
#220 = DIRECTION ( 'NONE',  ( -1.000000000000000000, 0.000000000000000000, 0.000000000000000000 ) ) ;
#221 = APPLICATION_CONTEXT ( 'automotive_design' ) ;
#222 = DIRECTION ( 'NONE',  ( -0.000000000000000000, -0.000000000000000000, -1.000000000000000000 ) ) ;
#223 = VERTEX_POINT ( 'NONE', #249 ) ;
#224 = DIRECTION ( 'NONE',  ( -0.000000000000000000, -0.000000000000000000, 1.000000000000000000 ) ) ;
#225 = EDGE_CURVE ( 'NONE', #48, #97, #322, .T. ) ;
#226 = ORIENTED_EDGE ( 'NONE', *, *, #116, .T. ) ;
#227 = AXIS2_PLACEMENT_3D ( 'NONE', #179, #313, #229 ) ;
#228 =( NAMED_UNIT ( * ) SI_UNIT ( $, .STERADIAN. ) SOLID_ANGLE_UNIT ( ) );
#229 = DIRECTION ( 'NONE',  ( 1.000000000000000000, 0.000000000000000000, -0.000000000000000000 ) ) ;
#230 =( NAMED_UNIT ( * ) PLANE_ANGLE_UNIT ( ) SI_UNIT ( $, .RADIAN. ) );
#231 = VERTEX_POINT ( 'NONE', #247 ) ;
#232 = ORIENTED_EDGE ( 'NONE', *, *, #192, .T. ) ;
#233 =( LENGTH_UNIT ( ) NAMED_UNIT ( * ) SI_UNIT ( .MILLI., .METRE. ) );
#234 = VECTOR ( 'NONE', #224, 1000.000000000000000 ) ;
#235 = CARTESIAN_POINT ( 'NONE',  ( 11.99999999999999822, 1.469576158976823750E-15, 15.00000000000000000 ) ) ;
#236 = CARTESIAN_POINT ( 'NONE',  ( 0.000000000000000000, 0.000000000000000000, 1.499999999999999556 ) ) ;
#237 = PRODUCT_DEFINITION ( '未知', '', #185, #242 ) ;
#238 = SHAPE_DEFINITION_REPRESENTATION ( #63, #146 ) ;
#239 = VECTOR ( 'NONE', #41, 1000.000000000000000 ) ;
#240 = DIRECTION ( 'NONE',  ( 1.000000000000000000, 0.000000000000000000, 0.000000000000000000 ) ) ;
#241 = CARTESIAN_POINT ( 'NONE',  ( 0.000000000000000000, 0.000000000000000000, 15.00000000000000000 ) ) ;
#242 = PRODUCT_DEFINITION_CONTEXT ( 'detailed design', #290, 'design' ) ;
#243 = EDGE_CURVE ( 'NONE', #145, #106, #37, .T. ) ;
#244 = DIRECTION ( 'NONE',  ( 1.000000000000000000, 0.000000000000000000, 0.000000000000000000 ) ) ;
#245 = AXIS2_PLACEMENT_3D ( 'NONE', #205, #176, #3 ) ;
#246 = DIRECTION ( 'NONE',  ( 0.000000000000000000, 0.000000000000000000, 1.000000000000000000 ) ) ;
#247 = CARTESIAN_POINT ( 'NONE',  ( 11.99999999999999822, 1.469576158976823750E-15, 1.000000000000000888 ) ) ;
#248 = EDGE_LOOP ( 'NONE', ( #71, #318, #226, #202 ) ) ;
#249 = CARTESIAN_POINT ( 'NONE',  ( 10.50000000000000000, 0.000000000000000000, 15.00000000000000000 ) ) ;
#250 = EDGE_CURVE ( 'NONE', #121, #18, #157, .T. ) ;
#251 = PRESENTATION_LAYER_ASSIGNMENT (  '', '', ( #85 ) ) ;
#252 = TOROIDAL_SURFACE ( 'NONE', #319, 9.500000000000001776, 1.000000000000000000 ) ;
#253 = ORIENTED_EDGE ( 'NONE', *, *, #116, .F. ) ;
#254 = CIRCLE ( 'NONE', #155, 10.50000000000000000 ) ;
#255 = ADVANCED_FACE ( 'NONE', ( #168 ), #59, .F. ) ;
#256 = ORIENTED_EDGE ( 'NONE', *, *, #225, .F. ) ;
#257 = CIRCLE ( 'NONE', #131, 11.00000000000000000 ) ;
#258 = CARTESIAN_POINT ( 'NONE',  ( 9.500000000000001776, 0.000000000000000000, 1.499999999999999556 ) ) ;
#259 = ORIENTED_EDGE ( 'NONE', *, *, #192, .F. ) ;
#260 =( NAMED_UNIT ( * ) PLANE_ANGLE_UNIT ( ) SI_UNIT ( $, .RADIAN. ) );
#261 = CARTESIAN_POINT ( 'NONE',  ( 0.000000000000000000, 0.000000000000000000, 1.499999999999999556 ) ) ;
#262 = AXIS2_PLACEMENT_3D ( 'NONE', #49, #12, #152 ) ;
#263 = VERTEX_POINT ( 'NONE', #54 ) ;
#264 = ORIENTED_EDGE ( 'NONE', *, *, #52, .F. ) ;
#265 =( LENGTH_UNIT ( ) NAMED_UNIT ( * ) SI_UNIT ( .MILLI., .METRE. ) );
#266 = AXIS2_PLACEMENT_3D ( 'NONE', #83, #212, #127 ) ;
#267 = EDGE_CURVE ( 'NONE', #72, #231, #125, .T. ) ;
#268 = DIRECTION ( 'NONE',  ( 0.000000000000000000, 0.000000000000000000, 1.000000000000000000 ) ) ;
#269 = CARTESIAN_POINT ( 'NONE',  ( 0.000000000000000000, 0.000000000000000000, 2.499999999999999556 ) ) ;
#270 = AXIS2_PLACEMENT_3D ( 'NONE', #236, #162, #138 ) ;
#271 = DIRECTION ( 'NONE',  ( 0.000000000000000000, 0.000000000000000000, 1.000000000000000000 ) ) ;
#272 = CARTESIAN_POINT ( 'NONE',  ( 10.50000000000000000, 0.000000000000000000, 2.499999999999999556 ) ) ;
#273 = ADVANCED_FACE ( 'NONE', ( #15 ), #280, .F. ) ;
#274 = CARTESIAN_POINT ( 'NONE',  ( 0.000000000000000000, 0.000000000000000000, 1.000000000000000888 ) ) ;
#275 = CARTESIAN_POINT ( 'NONE',  ( 10.50000000000000000, 0.000000000000000000, 1.499999999999999556 ) ) ;
#276 = ORIENTED_EDGE ( 'NONE', *, *, #99, .F. ) ;
#277 = DIRECTION ( 'NONE',  ( 1.224646799147353207E-16, 1.000000000000000000, -0.000000000000000000 ) ) ;
#278 = ORIENTED_EDGE ( 'NONE', *, *, #303, .T. ) ;
#279 = ORIENTED_EDGE ( 'NONE', *, *, #42, .T. ) ;
#280 = CYLINDRICAL_SURFACE ( 'NONE', #315, 10.50000000000000000 ) ;
#281 = CARTESIAN_POINT ( 'NONE',  ( 0.000000000000000000, 0.000000000000000000, 2.499999999999999556 ) ) ;
#282 = CARTESIAN_POINT ( 'NONE',  ( 0.000000000000000000, 0.000000000000000000, 1.499999999999999556 ) ) ;
#283 = CARTESIAN_POINT ( 'NONE',  ( -10.50000000000000000, 1.285879139104720831E-15, 2.499999999999999556 ) ) ;
#284 = ADVANCED_FACE ( 'NONE', ( #31 ), #94, .T. ) ;
#285 = FILL_AREA_STYLE_COLOUR ( '', #70 ) ;
#286 = STYLED_ITEM ( 'NONE', ( #211 ), #69 ) ;
#287 = ORIENTED_EDGE ( 'NONE', *, *, #92, .T. ) ;
#288 = SURFACE_SIDE_STYLE ('',( #34 ) ) ;
#289 = FACE_OUTER_BOUND ( 'NONE', #32, .T. ) ;
#290 = APPLICATION_CONTEXT ( 'automotive_design' ) ;
#291 = CIRCLE ( 'NONE', #306, 1.000000000000000888 ) ;
#292 = DIRECTION ( 'NONE',  ( 0.000000000000000000, 0.000000000000000000, 1.000000000000000000 ) ) ;
#293 = CARTESIAN_POINT ( 'NONE',  ( -11.99999999999999822, 0.000000000000000000, 15.00000000000000000 ) ) ;
#294 = CARTESIAN_POINT ( 'NONE',  ( -11.00000000000000000, 1.408343819019456176E-15, 0.000000000000000000 ) ) ;
#295 = CIRCLE ( 'NONE', #266, 11.99999999999999822 ) ;
#296 = DIRECTION ( 'NONE',  ( 1.000000000000000000, 0.000000000000000000, 0.000000000000000000 ) ) ;
#297 = APPLICATION_PROTOCOL_DEFINITION ( 'draft international standard', 'automotive_design', 1998, #221 ) ;
#298 = ADVANCED_FACE ( 'NONE', ( #195, #300 ), #147, .T. ) ;
#299 = VECTOR ( 'NONE', #39, 1000.000000000000000 ) ;
#300 = FACE_OUTER_BOUND ( 'NONE', #208, .T. ) ;
#301 = ORIENTED_EDGE ( 'NONE', *, *, #310, .F. ) ;
#302 = AXIS2_PLACEMENT_3D ( 'NONE', #144, #207, #201 ) ;
#303 = EDGE_CURVE ( 'NONE', #223, #263, #110, .T. ) ;
#304 = ORIENTED_EDGE ( 'NONE', *, *, #122, .T. ) ;
#305 = EDGE_LOOP ( 'NONE', ( #9, #174, #304, #128 ) ) ;
#306 = AXIS2_PLACEMENT_3D ( 'NONE', #109, #60, #55 ) ;
#307 = VERTEX_POINT ( 'NONE', #258 ) ;
#308 =( LENGTH_UNIT ( ) NAMED_UNIT ( * ) SI_UNIT ( .MILLI., .METRE. ) );
#309 = FACE_OUTER_BOUND ( 'NONE', #149, .T. ) ;
#310 = EDGE_CURVE ( 'NONE', #121, #223, #28, .T. ) ;
#311 = ORIENTED_EDGE ( 'NONE', *, *, #182, .F. ) ;
#312 = PRODUCT_CONTEXT ( 'NONE', #221, 'mechanical' ) ;
#313 = DIRECTION ( 'NONE',  ( 0.000000000000000000, 0.000000000000000000, 1.000000000000000000 ) ) ;
#314 = SURFACE_STYLE_USAGE ( .BOTH. , #194 ) ;
#315 = AXIS2_PLACEMENT_3D ( 'NONE', #282, #151, #10 ) ;
#316 = ORIENTED_EDGE ( 'NONE', *, *, #143, .T. ) ;
#317 = DIRECTION ( 'NONE',  ( 1.000000000000000000, 0.000000000000000000, 0.000000000000000000 ) ) ;
#318 = ORIENTED_EDGE ( 'NONE', *, *, #143, .F. ) ;
#319 = AXIS2_PLACEMENT_3D ( 'NONE', #269, #292, #64 ) ;
#320 = CARTESIAN_POINT ( 'NONE',  ( 11.00000000000000000, 0.000000000000000000, 0.000000000000000000 ) ) ;
#321 = CYLINDRICAL_SURFACE ( 'NONE', #270, 10.50000000000000000 ) ;
#322 = CIRCLE ( 'NONE', #173, 11.99999999999999822 ) ;
#323 = FACE_OUTER_BOUND ( 'NONE', #30, .T. ) ;
#324 = MECHANICAL_DESIGN_GEOMETRIC_PRESENTATION_REPRESENTATION (  '', ( #85 ), #107 ) ;
ENDSEC;
END-ISO-10303-21;
