ISO-10303-21;
HEADER;
FILE_DESCRIPTION (( 'STEP AP214' ),
    '1' );
FILE_NAME ('零件3.STEP',
    '2025-04-02T02:06:39',
    ( '' ),
    ( '' ),
    'SwSTEP 2.0',
    'SolidWorks 2021',
    '' );
FILE_SCHEMA (( 'AUTOMOTIVE_DESIGN' ));
ENDSEC;

DATA;
#1 = CARTESIAN_POINT ( 'NONE',  ( 30.00000000000000000, -5.000000000000006217, 2.999999999999999112 ) ) ;
#2 = VERTEX_POINT ( 'NONE', #113 ) ;
#3 = DIRECTION ( 'NONE',  ( 0.000000000000000000, 0.000000000000000000, 1.000000000000000000 ) ) ;
#4 = DIRECTION ( 'NONE',  ( 1.000000000000000000, 0.000000000000000000, 0.000000000000000000 ) ) ;
#5 = EDGE_CURVE ( 'NONE', #726, #569, #762, .T. ) ;
#6 = VERTEX_POINT ( 'NONE', #1146 ) ;
#7 = LINE ( 'NONE', #288, #302 ) ;
#8 = DIRECTION ( 'NONE',  ( -1.000000000000000000, 0.000000000000000000, 0.000000000000000000 ) ) ;
#9 = AXIS2_PLACEMENT_3D ( 'NONE', #227, #608, #861 ) ;
#10 = CARTESIAN_POINT ( 'NONE',  ( 0.000000000000000000, -1.000000000000000000, 23.00000000000000000 ) ) ;
#11 = AXIS2_PLACEMENT_3D ( 'NONE', #395, #95, #1205 ) ;
#12 = CIRCLE ( 'NONE', #702, 1.000000000000000888 ) ;
#13 = VERTEX_POINT ( 'NONE', #959 ) ;
#14 = EDGE_CURVE ( 'NONE', #1061, #234, #178, .T. ) ;
#15 = FACE_BOUND ( 'NONE', #915, .T. ) ;
#16 = CARTESIAN_POINT ( 'NONE',  ( 5.999999999999998224, -1.500000000000000666, 2.999999999999999112 ) ) ;
#17 = CARTESIAN_POINT ( 'NONE',  ( 31.00000000000000000, -8.000000000000000000, 23.00000000000000000 ) ) ;
#18 = DIRECTION ( 'NONE',  ( 1.000000000000000000, 0.000000000000000000, 0.000000000000000000 ) ) ;
#19 = CIRCLE ( 'NONE', #708, 1.000000000000000000 ) ;
#20 = ORIENTED_EDGE ( 'NONE', *, *, #968, .F. ) ;
#21 = FACE_OUTER_BOUND ( 'NONE', #274, .T. ) ;
#22 = CARTESIAN_POINT ( 'NONE',  ( 0.000000000000000000, -15.00000000000000000, 23.00000000000000000 ) ) ;
#23 = CARTESIAN_POINT ( 'NONE',  ( 5.999999999999998224, -14.50000000000000000, 2.999999999999999112 ) ) ;
#24 = DIRECTION ( 'NONE',  ( 0.000000000000000000, 0.000000000000000000, 1.000000000000000000 ) ) ;
#25 = ORIENTED_EDGE ( 'NONE', *, *, #434, .T. ) ;
#26 = DIRECTION ( 'NONE',  ( 1.000000000000000000, 0.000000000000000000, 0.000000000000000000 ) ) ;
#27 = DIRECTION ( 'NONE',  ( 0.000000000000000000, 0.000000000000000000, -1.000000000000000000 ) ) ;
#28 = VERTEX_POINT ( 'NONE', #191 ) ;
#29 = CARTESIAN_POINT ( 'NONE',  ( 32.00000000000000000, -8.000000000000000000, 8.000000000000000000 ) ) ;
#30 = UNCERTAINTY_MEASURE_WITH_UNIT (LENGTH_MEASURE( 1.000000000000000082E-05 ), #1099, 'distance_accuracy_value', 'NONE');
#31 = EDGE_CURVE ( 'NONE', #1208, #169, #382, .T. ) ;
#32 = ORIENTED_EDGE ( 'NONE', *, *, #220, .F. ) ;
#33 = VECTOR ( 'NONE', #960, 1000.000000000000000 ) ;
#34 = PLANE ( 'NONE',  #593 ) ;
#35 = EDGE_LOOP ( 'NONE', ( #695, #659, #56, #995, #351, #1178 ) ) ;
#36 = PLANE ( 'NONE',  #384 ) ;
#37 = AXIS2_PLACEMENT_3D ( 'NONE', #841, #3, #1125 ) ;
#38 = ORIENTED_EDGE ( 'NONE', *, *, #265, .F. ) ;
#39 = LINE ( 'NONE', #788, #270 ) ;
#40 = CARTESIAN_POINT ( 'NONE',  ( 34.99999999999999289, -15.00000000000000000, 1.000000000000000888 ) ) ;
#41 = FACE_OUTER_BOUND ( 'NONE', #624, .T. ) ;
#42 = EDGE_LOOP ( 'NONE', ( #787, #990, #890 ) ) ;
#43 = EDGE_CURVE ( 'NONE', #110, #174, #1051, .T. ) ;
#44 = ORIENTED_EDGE ( 'NONE', *, *, #31, .T. ) ;
#45 = DIRECTION ( 'NONE',  ( -0.000000000000000000, -0.000000000000000000, -1.000000000000000000 ) ) ;
#46 = DIRECTION ( 'NONE',  ( -1.000000000000000000, 0.000000000000000000, 0.000000000000000000 ) ) ;
#47 = DIRECTION ( 'NONE',  ( 0.000000000000000000, 0.000000000000000000, -1.000000000000000000 ) ) ;
#48 = DIRECTION ( 'NONE',  ( 0.000000000000000000, 0.000000000000000000, 1.000000000000000000 ) ) ;
#49 = VERTEX_POINT ( 'NONE', #17 ) ;
#50 = ORIENTED_EDGE ( 'NONE', *, *, #597, .F. ) ;
#51 = CARTESIAN_POINT ( 'NONE',  ( 0.000000000000000000, 0.000000000000000000, 1.000000000000000888 ) ) ;
#52 = CARTESIAN_POINT ( 'NONE',  ( 11.99999999999999645, -11.00000000000000000, 0.000000000000000000 ) ) ;
#53 = VECTOR ( 'NONE', #1045, 1000.000000000000000 ) ;
#54 = ADVANCED_FACE ( 'NONE', ( #933 ), #1133, .F. ) ;
#55 = FACE_OUTER_BOUND ( 'NONE', #310, .T. ) ;
#56 = ORIENTED_EDGE ( 'NONE', *, *, #1199, .F. ) ;
#57 = ADVANCED_FACE ( 'NONE', ( #768 ), #483, .F. ) ;
#58 = AXIS2_PLACEMENT_3D ( 'NONE', #341, #556, #927 ) ;
#59 = VERTEX_POINT ( 'NONE', #656 ) ;
#60 = FACE_OUTER_BOUND ( 'NONE', #122, .T. ) ;
#61 = AXIS2_PLACEMENT_3D ( 'NONE', #685, #207, #26 ) ;
#62 = EDGE_CURVE ( 'NONE', #846, #174, #284, .T. ) ;
#63 = CARTESIAN_POINT ( 'NONE',  ( 5.999999999999998224, -7.999999999999998224, 0.000000000000000000 ) ) ;
#64 = CARTESIAN_POINT ( 'NONE',  ( 34.99999999999999289, -16.00000000000000000, 23.00000000000000000 ) ) ;
#65 = ORIENTED_EDGE ( 'NONE', *, *, #386, .T. ) ;
#66 = EDGE_CURVE ( 'NONE', #1112, #1050, #585, .T. ) ;
#67 = ORIENTED_EDGE ( 'NONE', *, *, #1155, .T. ) ;
#68 = DIRECTION ( 'NONE',  ( 0.000000000000000000, 0.000000000000000000, -1.000000000000000000 ) ) ;
#69 = DIRECTION ( 'NONE',  ( -1.000000000000000000, 0.000000000000000000, 0.000000000000000000 ) ) ;
#70 = ORIENTED_EDGE ( 'NONE', *, *, #1117, .F. ) ;
#71 = EDGE_LOOP ( 'NONE', ( #630, #213, #552, #770 ) ) ;
#72 = AXIS2_PLACEMENT_3D ( 'NONE', #158, #1003, #639 ) ;
#73 = ADVANCED_FACE ( 'NONE', ( #277 ), #119, .F. ) ;
#74 = ORIENTED_EDGE ( 'NONE', *, *, #821, .F. ) ;
#75 = ORIENTED_EDGE ( 'NONE', *, *, #1026, .F. ) ;
#76 = CARTESIAN_POINT ( 'NONE',  ( 33.00000000000000000, -8.000000000000000000, 8.000000000000000000 ) ) ;
#77 = AXIS2_PLACEMENT_3D ( 'NONE', #723, #348, #1018 ) ;
#78 = ORIENTED_EDGE ( 'NONE', *, *, #371, .F. ) ;
#79 = DIRECTION ( 'NONE',  ( 1.000000000000000000, 0.000000000000000000, 0.000000000000000000 ) ) ;
#80 = CIRCLE ( 'NONE', #524, 1.000000000000000000 ) ;
#81 = ORIENTED_EDGE ( 'NONE', *, *, #265, .T. ) ;
#82 = CARTESIAN_POINT ( 'NONE',  ( 36.00000000000000000, -15.00000000000000000, 23.00000000000000000 ) ) ;
#83 = AXIS2_PLACEMENT_3D ( 'NONE', #380, #481, #1040 ) ;
#84 = VERTEX_POINT ( 'NONE', #939 ) ;
#85 = DIRECTION ( 'NONE',  ( 1.000000000000000000, 0.000000000000000000, 0.000000000000000000 ) ) ;
#86 = EDGE_CURVE ( 'NONE', #983, #84, #209, .T. ) ;
#87 = EDGE_LOOP ( 'NONE', ( #808, #727 ) ) ;
#88 = DIRECTION ( 'NONE',  ( 0.000000000000000000, 0.000000000000000000, 1.000000000000000000 ) ) ;
#89 = ADVANCED_FACE ( 'NONE', ( #443 ), #824, .T. ) ;
#90 = DIRECTION ( 'NONE',  ( 0.000000000000000000, 0.000000000000000000, -1.000000000000000000 ) ) ;
#91 = DIRECTION ( 'NONE',  ( -1.000000000000000000, 0.000000000000000000, 0.000000000000000000 ) ) ;
#92 = EDGE_LOOP ( 'NONE', ( #364, #881, #226, #332, #194, #1002, #116, #1190 ) ) ;
#93 = CARTESIAN_POINT ( 'NONE',  ( 0.000000000000000000, -16.00000000000000000, 1.000000000000000888 ) ) ;
#94 = CARTESIAN_POINT ( 'NONE',  ( 36.00000000000000000, -1.000000000000000000, 23.00000000000000000 ) ) ;
#95 = DIRECTION ( 'NONE',  ( 7.228014483236694583E-17, 1.000000000000000000, -0.000000000000000000 ) ) ;
#96 = CIRCLE ( 'NONE', #1150, 1.000000000000000000 ) ;
#97 = AXIS2_PLACEMENT_3D ( 'NONE', #949, #840, #1027 ) ;
#98 = ORIENTED_EDGE ( 'NONE', *, *, #43, .F. ) ;
#99 = EDGE_CURVE ( 'NONE', #28, #791, #320, .T. ) ;
#100 = CARTESIAN_POINT ( 'NONE',  ( 5.999999999999998224, -1.500000000000000666, 2.999999999999999112 ) ) ;
#101 = DIRECTION ( 'NONE',  ( -0.000000000000000000, -0.000000000000000000, -1.000000000000000000 ) ) ;
#102 = ADVANCED_FACE ( 'NONE', ( #897 ), #998, .F. ) ;
#103 = CARTESIAN_POINT ( 'NONE',  ( 1.000000000000000000, -1.000000000000000000, 23.00000000000000000 ) ) ;
#104 = ORIENTED_EDGE ( 'NONE', *, *, #449, .F. ) ;
#105 = DIRECTION ( 'NONE',  ( -0.000000000000000000, -0.000000000000000000, 1.000000000000000000 ) ) ;
#106 = CARTESIAN_POINT ( 'NONE',  ( 4.000000000000000888, -8.000000000000000000, 8.000000000000000000 ) ) ;
#107 = DIRECTION ( 'NONE',  ( 1.000000000000000000, 0.000000000000000000, 0.000000000000000000 ) ) ;
#108 = CYLINDRICAL_SURFACE ( 'NONE', #622, 1.000000000000000000 ) ;
#109 = EDGE_CURVE ( 'NONE', #2, #543, #149, .T. ) ;
#110 = VERTEX_POINT ( 'NONE', #529 ) ;
#111 = DIRECTION ( 'NONE',  ( -1.000000000000000000, 0.000000000000000000, 0.000000000000000000 ) ) ;
#112 = CARTESIAN_POINT ( 'NONE',  ( 24.00000000000000000, -11.00000000000000178, 3.000000000000000000 ) ) ;
#113 = CARTESIAN_POINT ( 'NONE',  ( 1.000000000000000000, -15.00000000000000000, 0.000000000000000000 ) ) ;
#114 = CARTESIAN_POINT ( 'NONE',  ( 1.000000000000000000, -16.00000000000000000, 23.00000000000000000 ) ) ;
#115 = VECTOR ( 'NONE', #847, 1000.000000000000000 ) ;
#116 = ORIENTED_EDGE ( 'NONE', *, *, #925, .T. ) ;
#117 = DIRECTION ( 'NONE',  ( 1.000000000000000000, -0.000000000000000000, 0.000000000000000000 ) ) ;
#118 = DIRECTION ( 'NONE',  ( 0.000000000000000000, 0.000000000000000000, -1.000000000000000000 ) ) ;
#119 = CYLINDRICAL_SURFACE ( 'NONE', #132, 2.999999999999993783 ) ;
#120 = AXIS2_PLACEMENT_3D ( 'NONE', #1177, #1010, #335 ) ;
#121 = AXIS2_PLACEMENT_3D ( 'NONE', #135, #697, #691 ) ;
#122 = EDGE_LOOP ( 'NONE', ( #303, #140, #895 ) ) ;
#123 = DIRECTION ( 'NONE',  ( 0.000000000000000000, 0.000000000000000000, 1.000000000000000000 ) ) ;
#124 = DIRECTION ( 'NONE',  ( -1.000000000000000000, 0.000000000000000000, -0.000000000000000000 ) ) ;
#125 = ADVANCED_FACE ( 'NONE', ( #340 ), #919, .F. ) ;
#126 = CARTESIAN_POINT ( 'NONE',  ( 24.00000000000000000, -5.000000000000000888, 0.000000000000000000 ) ) ;
#127 = ORIENTED_EDGE ( 'NONE', *, *, #62, .T. ) ;
#128 = DIRECTION ( 'NONE',  ( -0.000000000000000000, 0.000000000000000000, 1.000000000000000000 ) ) ;
#129 = DIRECTION ( 'NONE',  ( -1.000000000000000000, 0.000000000000000000, 0.000000000000000000 ) ) ;
#130 = ORIENTED_EDGE ( 'NONE', *, *, #758, .T. ) ;
#131 = CYLINDRICAL_SURFACE ( 'NONE', #759, 1.000000000000000888 ) ;
#132 = AXIS2_PLACEMENT_3D ( 'NONE', #574, #1029, #567 ) ;
#133 = ORIENTED_EDGE ( 'NONE', *, *, #109, .F. ) ;
#134 = AXIS2_PLACEMENT_3D ( 'NONE', #370, #864, #18 ) ;
#135 = CARTESIAN_POINT ( 'NONE',  ( 24.00000000000000000, -5.000000000000000888, 3.000000000000000000 ) ) ;
#136 = DIRECTION ( 'NONE',  ( 1.000000000000000000, -1.445602896647338917E-16, 0.000000000000000000 ) ) ;
#137 = EDGE_CURVE ( 'NONE', #966, #372, #381, .T. ) ;
#138 = VECTOR ( 'NONE', #1085, 1000.000000000000000 ) ;
#139 = AXIS2_PLACEMENT_3D ( 'NONE', #202, #1120, #754 ) ;
#140 = ORIENTED_EDGE ( 'NONE', *, *, #1082, .T. ) ;
#141 = LINE ( 'NONE', #311, #650 ) ;
#142 = CARTESIAN_POINT ( 'NONE',  ( 30.00000000000000000, -5.000000000000006217, 3.500000000000000000 ) ) ;
#143 = DIRECTION ( 'NONE',  ( 1.000000000000000000, 0.000000000000000000, 0.000000000000000000 ) ) ;
#144 = ADVANCED_FACE ( 'NONE', ( #633 ), #926, .T. ) ;
#145 = CARTESIAN_POINT ( 'NONE',  ( 30.00000000000000000, -1.500000000000001110, 2.999999999999999112 ) ) ;
#146 = DIRECTION ( 'NONE',  ( -1.000000000000000000, 0.000000000000000000, 0.000000000000000000 ) ) ;
#147 = ORIENTED_EDGE ( 'NONE', *, *, #941, .F. ) ;
#148 = VECTOR ( 'NONE', #1091, 1000.000000000000000 ) ;
#149 = CIRCLE ( 'NONE', #225, 1.000000000000000000 ) ;
#150 = DIRECTION ( 'NONE',  ( 0.000000000000000000, 1.000000000000000000, 0.000000000000000000 ) ) ;
#151 = DIRECTION ( 'NONE',  ( -0.000000000000000000, 1.000000000000000000, -0.000000000000000000 ) ) ;
#152 = VERTEX_POINT ( 'NONE', #1009 ) ;
#153 = EDGE_LOOP ( 'NONE', ( #1185, #1095, #133 ) ) ;
#154 = CARTESIAN_POINT ( 'NONE',  ( 34.99999999999999289, 0.000000000000000000, 23.00000000000000000 ) ) ;
#155 = LINE ( 'NONE', #160, #358 ) ;
#156 = EDGE_CURVE ( 'NONE', #874, #293, #833, .T. ) ;
#157 = AXIS2_PLACEMENT_3D ( 'NONE', #596, #27, #124 ) ;
#158 = CARTESIAN_POINT ( 'NONE',  ( 34.99999999999999289, -1.000000000000000000, 23.00000000000000000 ) ) ;
#159 = CARTESIAN_POINT ( 'NONE',  ( 1.000000000000000000, -1.000000000000000000, 1.000000000000000000 ) ) ;
#160 = CARTESIAN_POINT ( 'NONE',  ( 5.999999999999998224, -1.500000000000000666, 3.500000000000000000 ) ) ;
#161 = ORIENTED_EDGE ( 'NONE', *, *, #625, .T. ) ;
#162 = CARTESIAN_POINT ( 'NONE',  ( 0.000000000000000000, 0.000000000000000000, 23.00000000000000000 ) ) ;
#163 = AXIS2_PLACEMENT_3D ( 'NONE', #577, #571, #829 ) ;
#164 = DIRECTION ( 'NONE',  ( 1.000000000000000000, 0.000000000000000000, 0.000000000000000000 ) ) ;
#165 = LINE ( 'NONE', #172, #246 ) ;
#166 = VECTOR ( 'NONE', #1030, 1000.000000000000000 ) ;
#167 = ORIENTED_EDGE ( 'NONE', *, *, #477, .F. ) ;
#168 = EDGE_CURVE ( 'NONE', #392, #983, #7, .T. ) ;
#169 = VERTEX_POINT ( 'NONE', #387 ) ;
#170 =( NAMED_UNIT ( * ) PLANE_ANGLE_UNIT ( ) SI_UNIT ( $, .RADIAN. ) );
#171 = CIRCLE ( 'NONE', #512, 2.999999999999995559 ) ;
#172 = CARTESIAN_POINT ( 'NONE',  ( 5.999999999999998224, -1.500000000000000666, 2.999999999999999112 ) ) ;
#173 = ORIENTED_EDGE ( 'NONE', *, *, #218, .F. ) ;
#174 = VERTEX_POINT ( 'NONE', #1123 ) ;
#175 = DIRECTION ( 'NONE',  ( 0.000000000000000000, 0.000000000000000000, -1.000000000000000000 ) ) ;
#176 = ORIENTED_EDGE ( 'NONE', *, *, #929, .T. ) ;
#177 = CARTESIAN_POINT ( 'NONE',  ( 24.00000000000000000, -5.000000000000000888, 0.000000000000000000 ) ) ;
#178 = LINE ( 'NONE', #951, #525 ) ;
#179 = EDGE_CURVE ( 'NONE', #874, #1195, #913, .T. ) ;
#180 = ORIENTED_EDGE ( 'NONE', *, *, #386, .F. ) ;
#181 = EDGE_CURVE ( 'NONE', #791, #13, #813, .T. ) ;
#182 = CARTESIAN_POINT ( 'NONE',  ( 24.00000000000000000, -11.00000000000000178, 0.000000000000000000 ) ) ;
#183 = FACE_OUTER_BOUND ( 'NONE', #1063, .T. ) ;
#184 = CARTESIAN_POINT ( 'NONE',  ( 30.00000000000000000, -8.000000000000000000, 3.500000000000000000 ) ) ;
#185 = DIRECTION ( 'NONE',  ( -0.000000000000000000, 0.000000000000000000, 1.000000000000000000 ) ) ;
#186 = CIRCLE ( 'NONE', #1092, 2.999999999999995559 ) ;
#187 = ORIENTED_EDGE ( 'NONE', *, *, #179, .T. ) ;
#188 = CYLINDRICAL_SURFACE ( 'NONE', #163, 1.000000000000000000 ) ;
#189 = DIRECTION ( 'NONE',  ( -1.000000000000000000, 0.000000000000000000, 0.000000000000000000 ) ) ;
#190 = VECTOR ( 'NONE', #615, 1000.000000000000000 ) ;
#191 = CARTESIAN_POINT ( 'NONE',  ( 36.00000000000000000, -15.00000000000000000, 1.000000000000000888 ) ) ;
#192 = DIRECTION ( 'NONE',  ( -0.000000000000000000, 0.000000000000000000, 1.000000000000000000 ) ) ;
#193 = EDGE_CURVE ( 'NONE', #414, #13, #195, .T. ) ;
#194 = ORIENTED_EDGE ( 'NONE', *, *, #821, .T. ) ;
#195 = LINE ( 'NONE', #93, #978 ) ;
#196 = LINE ( 'NONE', #1204, #1020 ) ;
#197 = DIRECTION ( 'NONE',  ( -0.000000000000000000, -0.000000000000000000, -1.000000000000000000 ) ) ;
#198 = LINE ( 'NONE', #749, #934 ) ;
#199 = UNCERTAINTY_MEASURE_WITH_UNIT (LENGTH_MEASURE( 1.000000000000000082E-05 ), #540, 'distance_accuracy_value', 'NONE');
#200 = ORIENTED_EDGE ( 'NONE', *, *, #477, .T. ) ;
#201 = DIRECTION ( 'NONE',  ( 1.000000000000000000, 0.000000000000000000, 0.000000000000000000 ) ) ;
#202 = CARTESIAN_POINT ( 'NONE',  ( 34.99999999999999289, -15.00000000000000000, 23.00000000000000000 ) ) ;
#203 = DIRECTION ( 'NONE',  ( -0.000000000000000000, -0.000000000000000000, -1.000000000000000000 ) ) ;
#204 = CARTESIAN_POINT ( 'NONE',  ( 30.00000000000000000, -1.500000000000001110, 2.999999999999999112 ) ) ;
#205 = ORIENTED_EDGE ( 'NONE', *, *, #193, .F. ) ;
#206 = EDGE_CURVE ( 'NONE', #174, #110, #439, .T. ) ;
#207 = DIRECTION ( 'NONE',  ( -0.000000000000000000, 0.000000000000000000, 1.000000000000000000 ) ) ;
#208 = CYLINDRICAL_SURFACE ( 'NONE', #343, 1.000000000000000000 ) ;
#209 = LINE ( 'NONE', #688, #852 ) ;
#210 = CARTESIAN_POINT ( 'NONE',  ( 31.00000000000000000, -8.000000000000000000, 8.000000000000000000 ) ) ;
#211 = CIRCLE ( 'NONE', #820, 1.000000000000000000 ) ;
#212 = VECTOR ( 'NONE', #45, 1000.000000000000000 ) ;
#213 = ORIENTED_EDGE ( 'NONE', *, *, #399, .T. ) ;
#214 = PLANE ( 'NONE',  #121 ) ;
#215 = FACE_OUTER_BOUND ( 'NONE', #563, .T. ) ;
#216 = ORIENTED_EDGE ( 'NONE', *, *, #518, .T. ) ;
#217 = LINE ( 'NONE', #894, #1183 ) ;
#218 = EDGE_CURVE ( 'NONE', #444, #486, #741, .T. ) ;
#219 = ORIENTED_EDGE ( 'NONE', *, *, #434, .F. ) ;
#220 = EDGE_CURVE ( 'NONE', #599, #110, #1024, .T. ) ;
#221 = LINE ( 'NONE', #792, #860 ) ;
#222 = DIRECTION ( 'NONE',  ( -0.000000000000000000, 1.000000000000000000, -0.000000000000000000 ) ) ;
#223 = DIRECTION ( 'NONE',  ( 0.000000000000000000, -1.000000000000000000, 0.000000000000000000 ) ) ;
#224 = ORIENTED_EDGE ( 'NONE', *, *, #738, .F. ) ;
#225 = AXIS2_PLACEMENT_3D ( 'NONE', #455, #150, #258 ) ;
#226 = ORIENTED_EDGE ( 'NONE', *, *, #520, .T. ) ;
#227 = CARTESIAN_POINT ( 'NONE',  ( 32.00000000000000000, -8.000000000000000000, 8.000000000000000000 ) ) ;
#228 = CARTESIAN_POINT ( 'NONE',  ( 3.000000000000000888, -8.000000000000000000, 23.00000000000000000 ) ) ;
#229 = DIRECTION ( 'NONE',  ( -0.000000000000000000, -0.000000000000000000, 1.000000000000000000 ) ) ;
#230 = VERTEX_POINT ( 'NONE', #182 ) ;
#231 = ADVANCED_FACE ( 'NONE', ( #360 ), #936, .F. ) ;
#232 = CIRCLE ( 'NONE', #120, 2.999999999999993783 ) ;
#233 = PRODUCT ( '零件3', '零件3', '', ( #918 ) ) ;
#234 = VERTEX_POINT ( 'NONE', #663 ) ;
#235 = CIRCLE ( 'NONE', #61, 2.999999999999995559 ) ;
#236 = FACE_BOUND ( 'NONE', #632, .T. ) ;
#237 = DIRECTION ( 'NONE',  ( -0.000000000000000000, 0.000000000000000000, 1.000000000000000000 ) ) ;
#238 = DIRECTION ( 'NONE',  ( 1.000000000000000000, 0.000000000000000000, 0.000000000000000000 ) ) ;
#239 = VERTEX_POINT ( 'NONE', #1033 ) ;
#240 = DIRECTION ( 'NONE',  ( 1.000000000000000000, 0.000000000000000000, 0.000000000000000000 ) ) ;
#241 = VERTEX_POINT ( 'NONE', #1 ) ;
#242 = ORIENTED_EDGE ( 'NONE', *, *, #493, .T. ) ;
#243 = EDGE_CURVE ( 'NONE', #486, #989, #944, .T. ) ;
#244 = FILL_AREA_STYLE ('',( #334 ) ) ;
#245 = SURFACE_STYLE_FILL_AREA ( #717 ) ;
#246 = VECTOR ( 'NONE', #920, 1000.000000000000000 ) ;
#247 = CARTESIAN_POINT ( 'NONE',  ( 0.000000000000000000, 0.000000000000000000, 23.00000000000000000 ) ) ;
#248 = DIRECTION ( 'NONE',  ( -1.000000000000000000, 1.807003620809173954E-17, -0.000000000000000000 ) ) ;
#249 = EDGE_LOOP ( 'NONE', ( #50, #703, #641, #377 ) ) ;
#250 = ORIENTED_EDGE ( 'NONE', *, *, #747, .F. ) ;
#251 = LINE ( 'NONE', #1176, #479 ) ;
#252 = FILL_AREA_STYLE_COLOUR ( '', #928 ) ;
#253 = PRODUCT_DEFINITION ( '未知', '', #1194, #673 ) ;
#254 = DIRECTION ( 'NONE',  ( 0.000000000000000000, 0.000000000000000000, -1.000000000000000000 ) ) ;
#255 = CARTESIAN_POINT ( 'NONE',  ( 4.000000000000000888, -8.000000000000000000, 8.000000000000000000 ) ) ;
#256 = LINE ( 'NONE', #162, #1037 ) ;
#257 = ADVANCED_FACE ( 'NONE', ( #582 ), #188, .T. ) ;
#258 = DIRECTION ( 'NONE',  ( 0.000000000000000000, 0.000000000000000000, -1.000000000000000000 ) ) ;
#259 = DIRECTION ( 'NONE',  ( -0.000000000000000000, -0.000000000000000000, -1.000000000000000000 ) ) ;
#260 = ORIENTED_EDGE ( 'NONE', *, *, #635, .F. ) ;
#261 =( NAMED_UNIT ( * ) SI_UNIT ( $, .STERADIAN. ) SOLID_ANGLE_UNIT ( ) );
#262 = APPLICATION_PROTOCOL_DEFINITION ( 'draft international standard', 'automotive_design', 1998, #503 ) ;
#263 = VECTOR ( 'NONE', #931, 1000.000000000000000 ) ;
#264 = CARTESIAN_POINT ( 'NONE',  ( 3.000000000000004441, -7.999999999999998224, 3.500000000000000000 ) ) ;
#265 = EDGE_CURVE ( 'NONE', #626, #49, #473, .T. ) ;
#266 = ORIENTED_EDGE ( 'NONE', *, *, #14, .T. ) ;
#267 = CIRCLE ( 'NONE', #139, 1.000000000000000888 ) ;
#268 = FACE_OUTER_BOUND ( 'NONE', #812, .T. ) ;
#269 = LINE ( 'NONE', #445, #148 ) ;
#270 = VECTOR ( 'NONE', #1165, 1000.000000000000000 ) ;
#271 = EDGE_CURVE ( 'NONE', #791, #2, #760, .T. ) ;
#272 = ORIENTED_EDGE ( 'NONE', *, *, #982, .T. ) ;
#273 = EDGE_CURVE ( 'NONE', #326, #732, #956, .T. ) ;
#274 = EDGE_LOOP ( 'NONE', ( #858, #1184, #459, #104 ) ) ;
#275 = CARTESIAN_POINT ( 'NONE',  ( 24.00000000000000000, -5.000000000000000888, 3.000000000000000000 ) ) ;
#276 = CARTESIAN_POINT ( 'NONE',  ( 30.00000000000000000, -8.000000000000000000, 3.500000000000000000 ) ) ;
#277 = FACE_OUTER_BOUND ( 'NONE', #1103, .T. ) ;
#278 = DIRECTION ( 'NONE',  ( 1.000000000000000000, 0.000000000000000000, 0.000000000000000000 ) ) ;
#279 = ORIENTED_EDGE ( 'NONE', *, *, #558, .F. ) ;
#280 = ADVANCED_FACE ( 'NONE', ( #559, #1119, #15, #766 ), #294, .T. ) ;
#281 = DIRECTION ( 'NONE',  ( 1.807003620809173954E-17, 1.000000000000000000, 0.000000000000000000 ) ) ;
#282 = CARTESIAN_POINT ( 'NONE',  ( 30.00000000000000000, -5.000000000000006217, 3.500000000000000000 ) ) ;
#283 = AXIS2_PLACEMENT_3D ( 'NONE', #247, #628, #353 ) ;
#284 = LINE ( 'NONE', #856, #623 ) ;
#285 = FACE_OUTER_BOUND ( 'NONE', #71, .T. ) ;
#286 = VECTOR ( 'NONE', #413, 1000.000000000000000 ) ;
#287 = ORIENTED_EDGE ( 'NONE', *, *, #982, .F. ) ;
#288 = CARTESIAN_POINT ( 'NONE',  ( 5.999999999999998224, -1.500000000000000666, 2.999999999999999112 ) ) ;
#289 = DIRECTION ( 'NONE',  ( 0.000000000000000000, 1.000000000000000000, 0.000000000000000000 ) ) ;
#290 = AXIS2_PLACEMENT_3D ( 'NONE', #887, #47, #706 ) ;
#291 = AXIS2_PLACEMENT_3D ( 'NONE', #40, #1161, #46 ) ;
#292 = DIRECTION ( 'NONE',  ( -0.000000000000000000, -0.000000000000000000, 1.000000000000000000 ) ) ;
#293 = VERTEX_POINT ( 'NONE', #957 ) ;
#294 = PLANE ( 'NONE',  #1113 ) ;
#295 = DIRECTION ( 'NONE',  ( -0.000000000000000000, 1.000000000000000000, 0.000000000000000000 ) ) ;
#296 = DIRECTION ( 'NONE',  ( -1.000000000000000000, 0.000000000000000000, 0.000000000000000000 ) ) ;
#297 = ADVANCED_FACE ( 'NONE', ( #268 ), #1203, .T. ) ;
#298 = ORIENTED_EDGE ( 'NONE', *, *, #333, .F. ) ;
#299 = DIRECTION ( 'NONE',  ( 0.000000000000000000, 0.000000000000000000, -1.000000000000000000 ) ) ;
#300 = CARTESIAN_POINT ( 'NONE',  ( 5.999999999999998224, -1.500000000000000666, 23.00000000000000000 ) ) ;
#301 = CARTESIAN_POINT ( 'NONE',  ( 30.00000000000000000, -1.500000000000001110, 23.00000000000000000 ) ) ;
#302 = VECTOR ( 'NONE', #105, 1000.000000000000000 ) ;
#303 = ORIENTED_EDGE ( 'NONE', *, *, #1041, .T. ) ;
#304 = FACE_BOUND ( 'NONE', #385, .T. ) ;
#305 = CARTESIAN_POINT ( 'NONE',  ( 33.00000000000000000, -8.000000000000000000, 23.00000000000000000 ) ) ;
#306 = ORIENTED_EDGE ( 'NONE', *, *, #179, .F. ) ;
#307 = DIRECTION ( 'NONE',  ( -0.000000000000000000, -0.000000000000000000, 1.000000000000000000 ) ) ;
#308 = ADVANCED_FACE ( 'NONE', ( #601 ), #411, .F. ) ;
#309 = ADVANCED_FACE ( 'NONE', ( #415, #393, #236, #304 ), #34, .F. ) ;
#310 = EDGE_LOOP ( 'NONE', ( #690, #644, #287, #409, #948, #803, #456, #460 ) ) ;
#311 = CARTESIAN_POINT ( 'NONE',  ( 36.00000000000000000, 0.000000000000000000, 1.000000000000000888 ) ) ;
#312 = PLANE ( 'NONE',  #668 ) ;
#313 = ORIENTED_EDGE ( 'NONE', *, *, #273, .F. ) ;
#314 = DIRECTION ( 'NONE',  ( 0.000000000000000000, 0.000000000000000000, 1.000000000000000000 ) ) ;
#315 = ORIENTED_EDGE ( 'NONE', *, *, #877, .T. ) ;
#316 = LINE ( 'NONE', #323, #492 ) ;
#317 = FACE_OUTER_BOUND ( 'NONE', #1137, .T. ) ;
#318 = EDGE_CURVE ( 'NONE', #732, #6, #221, .T. ) ;
#319 = CARTESIAN_POINT ( 'NONE',  ( 34.99999999999999289, 0.000000000000000000, 23.00000000000000000 ) ) ;
#320 = CIRCLE ( 'NONE', #77, 1.000000000000000000 ) ;
#321 = ORIENTED_EDGE ( 'NONE', *, *, #872, .F. ) ;
#322 = CIRCLE ( 'NONE', #442, 1.000000000000000888 ) ;
#323 = CARTESIAN_POINT ( 'NONE',  ( 24.00000000000000000, -11.00000000000000178, 0.000000000000000000 ) ) ;
#324 = CARTESIAN_POINT ( 'NONE',  ( 1.000000000000000000, 0.000000000000000000, 0.000000000000000000 ) ) ;
#325 = DIRECTION ( 'NONE',  ( 1.000000000000000000, 0.000000000000000000, 0.000000000000000000 ) ) ;
#326 = VERTEX_POINT ( 'NONE', #488 ) ;
#327 = VECTOR ( 'NONE', #848, 1000.000000000000000 ) ;
#328 = EDGE_LOOP ( 'NONE', ( #1032, #176, #908 ) ) ;
#329 = SURFACE_SIDE_STYLE ('',( #1098 ) ) ;
#330 = CARTESIAN_POINT ( 'NONE',  ( 24.00000000000000000, -11.00000000000000178, 3.000000000000000000 ) ) ;
#331 = DIRECTION ( 'NONE',  ( -0.000000000000000000, 0.000000000000000000, 1.000000000000000000 ) ) ;
#332 = ORIENTED_EDGE ( 'NONE', *, *, #1106, .T. ) ;
#333 = EDGE_CURVE ( 'NONE', #230, #1208, #316, .T. ) ;
#334 = FILL_AREA_STYLE_COLOUR ( '', #1071 ) ;
#335 = DIRECTION ( 'NONE',  ( -1.000000000000000000, 0.000000000000000000, 0.000000000000000000 ) ) ;
#336 = ORIENTED_EDGE ( 'NONE', *, *, #355, .F. ) ;
#337 = ORIENTED_EDGE ( 'NONE', *, *, #1164, .T. ) ;
#338 = CARTESIAN_POINT ( 'NONE',  ( 30.00000000000000000, -14.50000000000000000, 23.00000000000000000 ) ) ;
#339 = VECTOR ( 'NONE', #502, 1000.000000000000000 ) ;
#340 = FACE_OUTER_BOUND ( 'NONE', #678, .T. ) ;
#341 = CARTESIAN_POINT ( 'NONE',  ( 0.000000000000000000, 0.000000000000000000, 23.00000000000000000 ) ) ;
#342 = ORIENTED_EDGE ( 'NONE', *, *, #333, .T. ) ;
#343 = AXIS2_PLACEMENT_3D ( 'NONE', #692, #497, #129 ) ;
#344 = EDGE_CURVE ( 'NONE', #599, #234, #235, .T. ) ;
#345 = ORIENTED_EDGE ( 'NONE', *, *, #893, .T. ) ;
#346 = LINE ( 'NONE', #1191, #725 ) ;
#347 = PRESENTATION_STYLE_ASSIGNMENT (( #896 ) ) ;
#348 = DIRECTION ( 'NONE',  ( -0.000000000000000000, 1.000000000000000000, -0.000000000000000000 ) ) ;
#349 = CARTESIAN_POINT ( 'NONE',  ( 1.000000000000000000, -1.000000000000000000, 1.000000000000000888 ) ) ;
#350 = ORIENTED_EDGE ( 'NONE', *, *, #558, .T. ) ;
#351 = ORIENTED_EDGE ( 'NONE', *, *, #220, .T. ) ;
#352 = DIRECTION ( 'NONE',  ( -0.000000000000000000, -0.000000000000000000, 1.000000000000000000 ) ) ;
#353 = DIRECTION ( 'NONE',  ( -0.000000000000000000, 0.000000000000000000, -1.000000000000000000 ) ) ;
#354 = DIRECTION ( 'NONE',  ( 1.000000000000000000, 0.000000000000000000, 0.000000000000000000 ) ) ;
#355 = EDGE_CURVE ( 'NONE', #28, #293, #141, .T. ) ;
#356 = STYLED_ITEM ( 'NONE', ( #535 ), #458 ) ;
#357 = VERTEX_POINT ( 'NONE', #496 ) ;
#358 = VECTOR ( 'NONE', #652, 1000.000000000000000 ) ;
#359 = AXIS2_PLACEMENT_3D ( 'NONE', #463, #836, #1156 ) ;
#360 = FACE_OUTER_BOUND ( 'NONE', #594, .T. ) ;
#361 = LINE ( 'NONE', #537, #1000 ) ;
#362 = ORIENTED_EDGE ( 'NONE', *, *, #1041, .F. ) ;
#363 = VECTOR ( 'NONE', #1147, 1000.000000000000000 ) ;
#364 = ORIENTED_EDGE ( 'NONE', *, *, #709, .T. ) ;
#365 = AXIS2_PLACEMENT_3D ( 'NONE', #805, #541, #69 ) ;
#366 = DIRECTION ( 'NONE',  ( -1.000000000000000000, -0.000000000000000000, -0.000000000000000000 ) ) ;
#367 = ORIENTED_EDGE ( 'NONE', *, *, #1096, .F. ) ;
#368 = DIRECTION ( 'NONE',  ( 0.000000000000000000, 0.000000000000000000, 1.000000000000000000 ) ) ;
#369 = DIRECTION ( 'NONE',  ( -1.000000000000000000, 0.000000000000000000, 0.000000000000000000 ) ) ;
#370 = CARTESIAN_POINT ( 'NONE',  ( 4.000000000000000888, -8.000000000000000000, 8.000000000000000000 ) ) ;
#371 = EDGE_CURVE ( 'NONE', #444, #169, #679, .T. ) ;
#372 = VERTEX_POINT ( 'NONE', #398 ) ;
#373 = CARTESIAN_POINT ( 'NONE',  ( 34.99999999999999289, -15.00000000000000000, 1.000000000000000888 ) ) ;
#374 = DIRECTION ( 'NONE',  ( 0.000000000000000000, -1.000000000000000000, 0.000000000000000000 ) ) ;
#375 = DIRECTION ( 'NONE',  ( 1.000000000000000000, -0.000000000000000000, 0.000000000000000000 ) ) ;
#376 = VECTOR ( 'NONE', #68, 1000.000000000000000 ) ;
#377 = ORIENTED_EDGE ( 'NONE', *, *, #505, .F. ) ;
#378 = ADVANCED_FACE ( 'NONE', ( #866 ), #214, .F. ) ;
#379 = DIRECTION ( 'NONE',  ( -0.000000000000000000, -0.000000000000000000, 1.000000000000000000 ) ) ;
#380 = CARTESIAN_POINT ( 'NONE',  ( 32.00000000000000000, -8.000000000000000000, 8.000000000000000000 ) ) ;
#381 = CIRCLE ( 'NONE', #739, 2.999999999999993783 ) ;
#382 = LINE ( 'NONE', #475, #462 ) ;
#383 = PLANE ( 'NONE',  #719 ) ;
#384 = AXIS2_PLACEMENT_3D ( 'NONE', #707, #781, #331 ) ;
#385 = EDGE_LOOP ( 'NONE', ( #298, #826, #260, #438 ) ) ;
#386 = EDGE_CURVE ( 'NONE', #59, #6, #923, .T. ) ;
#387 = CARTESIAN_POINT ( 'NONE',  ( 11.99999999999999645, -5.000000000000000000, 0.000000000000000000 ) ) ;
#388 = LINE ( 'NONE', #22, #611 ) ;
#389 = VECTOR ( 'NONE', #374, 1000.000000000000000 ) ;
#390 = SPHERICAL_SURFACE ( 'NONE', #814, 1.000000000000000000 ) ;
#391 = VECTOR ( 'NONE', #1079, 1000.000000000000000 ) ;
#392 = VERTEX_POINT ( 'NONE', #880 ) ;
#393 = FACE_BOUND ( 'NONE', #975, .T. ) ;
#394 = DIRECTION ( 'NONE',  ( -1.000000000000000000, 1.445602896647338917E-16, 0.000000000000000000 ) ) ;
#395 = CARTESIAN_POINT ( 'NONE',  ( 24.00000000000000000, -5.000000000000000888, 3.000000000000000000 ) ) ;
#396 = DIRECTION ( 'NONE',  ( -1.000000000000000000, -0.000000000000000000, -0.000000000000000000 ) ) ;
#397 = ORIENTED_EDGE ( 'NONE', *, *, #738, .T. ) ;
#398 = CARTESIAN_POINT ( 'NONE',  ( 3.000000000000004441, -7.999999999999998224, 0.000000000000000000 ) ) ;
#399 = EDGE_CURVE ( 'NONE', #806, #1149, #39, .T. ) ;
#400 = LINE ( 'NONE', #142, #844 ) ;
#401 = ORIENTED_EDGE ( 'NONE', *, *, #271, .F. ) ;
#402 = DIRECTION ( 'NONE',  ( 1.000000000000000000, 0.000000000000000000, 0.000000000000000000 ) ) ;
#403 = EDGE_CURVE ( 'NONE', #152, #1195, #1160, .T. ) ;
#404 = AXIS2_PLACEMENT_3D ( 'NONE', #1062, #699, #240 ) ;
#405 = VERTEX_POINT ( 'NONE', #501 ) ;
#406 = DIRECTION ( 'NONE',  ( -0.000000000000000000, 0.000000000000000000, 1.000000000000000000 ) ) ;
#407 = LINE ( 'NONE', #876, #1031 ) ;
#408 = CIRCLE ( 'NONE', #291, 1.000000000000000888 ) ;
#409 = ORIENTED_EDGE ( 'NONE', *, *, #168, .T. ) ;
#410 = ADVANCED_FACE ( 'NONE', ( #777 ), #704, .F. ) ;
#411 = CYLINDRICAL_SURFACE ( 'NONE', #553, 2.999999999999993783 ) ;
#412 = ORIENTED_EDGE ( 'NONE', *, *, #218, .T. ) ;
#413 = DIRECTION ( 'NONE',  ( -0.000000000000000000, -0.000000000000000000, -1.000000000000000000 ) ) ;
#414 = VERTEX_POINT ( 'NONE', #515 ) ;
#415 = FACE_OUTER_BOUND ( 'NONE', #1044, .T. ) ;
#416 = CARTESIAN_POINT ( 'NONE',  ( 33.00000000000000000, -8.000000000000000000, 8.000000000000000000 ) ) ;
#417 = DIRECTION ( 'NONE',  ( -0.000000000000000000, -0.000000000000000000, -1.000000000000000000 ) ) ;
#418 = VERTEX_POINT ( 'NONE', #1144 ) ;
#419 = AXIS2_PLACEMENT_3D ( 'NONE', #1039, #480, #854 ) ;
#420 = ORIENTED_EDGE ( 'NONE', *, *, #672, .F. ) ;
#421 = EDGE_LOOP ( 'NONE', ( #187, #779, #219, #279 ) ) ;
#422 = LINE ( 'NONE', #76, #1069 ) ;
#423 = DIRECTION ( 'NONE',  ( 0.000000000000000000, 0.000000000000000000, 1.000000000000000000 ) ) ;
#424 = AXIS2_PLACEMENT_3D ( 'NONE', #471, #946, #857 ) ;
#425 = FACE_OUTER_BOUND ( 'NONE', #550, .T. ) ;
#426 = ADVANCED_FACE ( 'NONE', ( #21 ), #1152, .T. ) ;
#427 = CIRCLE ( 'NONE', #37, 1.000000000000000000 ) ;
#428 = VERTEX_POINT ( 'NONE', #588 ) ;
#429 = PLANE ( 'NONE',  #290 ) ;
#430 = DIRECTION ( 'NONE',  ( -1.000000000000000000, 0.000000000000000000, 0.000000000000000000 ) ) ;
#431 = CARTESIAN_POINT ( 'NONE',  ( 36.00000000000000000, 0.000000000000000000, 23.00000000000000000 ) ) ;
#432 = ORIENTED_EDGE ( 'NONE', *, *, #658, .F. ) ;
#433 = DIRECTION ( 'NONE',  ( 0.000000000000000000, 0.000000000000000000, -1.000000000000000000 ) ) ;
#434 = EDGE_CURVE ( 'NONE', #1112, #152, #794, .T. ) ;
#435 = DIRECTION ( 'NONE',  ( -0.000000000000000000, -0.000000000000000000, -1.000000000000000000 ) ) ;
#436 =( GEOMETRIC_REPRESENTATION_CONTEXT ( 3 ) GLOBAL_UNCERTAINTY_ASSIGNED_CONTEXT ( ( #199 ) ) GLOBAL_UNIT_ASSIGNED_CONTEXT ( ( #540, #804, #261 ) ) REPRESENTATION_CONTEXT ( 'NONE', 'WORKASPACE' ) );
#437 = ORIENTED_EDGE ( 'NONE', *, *, #536, .T. ) ;
#438 = ORIENTED_EDGE ( 'NONE', *, *, #31, .F. ) ;
#439 = CIRCLE ( 'NONE', #1127, 2.999999999999995559 ) ;
#440 = ORIENTED_EDGE ( 'NONE', *, *, #318, .F. ) ;
#441 = CARTESIAN_POINT ( 'NONE',  ( 30.00000000000000000, -1.500000000000001110, 2.999999999999999112 ) ) ;
#442 = AXIS2_PLACEMENT_3D ( 'NONE', #605, #314, #325 ) ;
#443 = FACE_OUTER_BOUND ( 'NONE', #943, .T. ) ;
#444 = VERTEX_POINT ( 'NONE', #521 ) ;
#445 = CARTESIAN_POINT ( 'NONE',  ( 0.000000000000000000, -16.00000000000000000, 23.00000000000000000 ) ) ;
#446 = VERTEX_POINT ( 'NONE', #1187 ) ;
#447 = CIRCLE ( 'NONE', #365, 2.999999999999993783 ) ;
#448 = ORIENTED_EDGE ( 'NONE', *, *, #1056, .F. ) ;
#449 = EDGE_CURVE ( 'NONE', #13, #916, #251, .T. ) ;
#450 = CARTESIAN_POINT ( 'NONE',  ( 5.999999999999998224, -1.500000000000000666, 2.999999999999999112 ) ) ;
#451 = ORIENTED_EDGE ( 'NONE', *, *, #774, .T. ) ;
#452 = DIRECTION ( 'NONE',  ( 0.000000000000000000, -1.000000000000000000, 0.000000000000000000 ) ) ;
#453 = ORIENTED_EDGE ( 'NONE', *, *, #137, .T. ) ;
#454 = PRESENTATION_LAYER_ASSIGNMENT (  '', '', ( #751 ) ) ;
#455 = CARTESIAN_POINT ( 'NONE',  ( 1.000000000000000000, -15.00000000000000000, 1.000000000000000888 ) ) ;
#456 = ORIENTED_EDGE ( 'NONE', *, *, #518, .F. ) ;
#457 = LINE ( 'NONE', #431, #899 ) ;
#458 = MANIFOLD_SOLID_BREP ( '圆角1', #661 ) ;
#459 = ORIENTED_EDGE ( 'NONE', *, *, #997, .F. ) ;
#460 = ORIENTED_EDGE ( 'NONE', *, *, #968, .T. ) ;
#461 = AXIS2_PLACEMENT_3D ( 'NONE', #1189, #1105, #825 ) ;
#462 = VECTOR ( 'NONE', #562, 1000.000000000000000 ) ;
#463 = CARTESIAN_POINT ( 'NONE',  ( 34.99999999999999289, 0.000000000000000000, 1.000000000000000888 ) ) ;
#464 = CYLINDRICAL_SURFACE ( 'NONE', #1100, 2.999999999999995559 ) ;
#465 = DIRECTION ( 'NONE',  ( -1.000000000000000000, 0.000000000000000000, 0.000000000000000000 ) ) ;
#466 = ADVANCED_FACE ( 'NONE', ( #817 ), #527, .T. ) ;
#467 = ORIENTED_EDGE ( 'NONE', *, *, #831, .F. ) ;
#468 = CARTESIAN_POINT ( 'NONE',  ( 24.00000000000000000, -5.000000000000000888, 3.000000000000000000 ) ) ;
#469 = DIRECTION ( 'NONE',  ( 0.000000000000000000, 0.000000000000000000, 1.000000000000000000 ) ) ;
#470 = DIRECTION ( 'NONE',  ( 0.000000000000000000, 0.000000000000000000, -1.000000000000000000 ) ) ;
#471 = CARTESIAN_POINT ( 'NONE',  ( 36.00000000000000000, 0.000000000000000000, 23.00000000000000000 ) ) ;
#472 = ORIENTED_EDGE ( 'NONE', *, *, #782, .T. ) ;
#473 = LINE ( 'NONE', #1115, #700 ) ;
#474 = CARTESIAN_POINT ( 'NONE',  ( 34.99999999999999289, -1.000000000000000000, 1.000000000000000888 ) ) ;
#475 = CARTESIAN_POINT ( 'NONE',  ( 11.99999999999999645, -5.000000000000000000, 0.000000000000000000 ) ) ;
#476 = CARTESIAN_POINT ( 'NONE',  ( 1.000000000000000000, -1.000000000000000000, 1.000000000000000000 ) ) ;
#477 = EDGE_CURVE ( 'NONE', #418, #543, #809, .T. ) ;
#478 = ORIENTED_EDGE ( 'NONE', *, *, #399, .F. ) ;
#479 = VECTOR ( 'NONE', #352, 1000.000000000000000 ) ;
#480 = DIRECTION ( 'NONE',  ( 0.000000000000000000, 0.000000000000000000, -1.000000000000000000 ) ) ;
#481 = DIRECTION ( 'NONE',  ( 0.000000000000000000, 0.000000000000000000, 1.000000000000000000 ) ) ;
#482 = VECTOR ( 'NONE', #748, 1000.000000000000000 ) ;
#483 = PLANE ( 'NONE',  #11 ) ;
#484 = CARTESIAN_POINT ( 'NONE',  ( 30.00000000000000000, -14.50000000000000000, 2.999999999999999112 ) ) ;
#485 = VECTOR ( 'NONE', #435, 1000.000000000000000 ) ;
#486 = VERTEX_POINT ( 'NONE', #1090 ) ;
#487 = EDGE_CURVE ( 'NONE', #714, #874, #1180, .T. ) ;
#488 = CARTESIAN_POINT ( 'NONE',  ( 3.000000000000004441, -7.999999999999998224, 3.500000000000000000 ) ) ;
#489 = DIRECTION ( 'NONE',  ( -1.000000000000000000, 0.000000000000000000, 0.000000000000000000 ) ) ;
#490 = AXIS2_PLACEMENT_3D ( 'NONE', #1101, #289, #938 ) ;
#491 = DIRECTION ( 'NONE',  ( 0.000000000000000000, 0.000000000000000000, 1.000000000000000000 ) ) ;
#492 = VECTOR ( 'NONE', #976, 1000.000000000000000 ) ;
#493 = EDGE_CURVE ( 'NONE', #1114, #1159, #422, .T. ) ;
#494 = ORIENTED_EDGE ( 'NONE', *, *, #660, .T. ) ;
#495 = EDGE_CURVE ( 'NONE', #241, #1175, #627, .T. ) ;
#496 = CARTESIAN_POINT ( 'NONE',  ( 36.00000000000000000, -15.00000000000000000, 23.00000000000000000 ) ) ;
#497 = DIRECTION ( 'NONE',  ( -0.000000000000000000, 0.000000000000000000, -1.000000000000000000 ) ) ;
#498 = ORIENTED_EDGE ( 'NONE', *, *, #1008, .T. ) ;
#499 = CARTESIAN_POINT ( 'NONE',  ( 0.000000000000000000, 0.000000000000000000, 1.000000000000000888 ) ) ;
#500 = ORIENTED_EDGE ( 'NONE', *, *, #816, .F. ) ;
#501 = CARTESIAN_POINT ( 'NONE',  ( 5.999999999999998224, -10.99999999999999289, 2.999999999999999112 ) ) ;
#502 = DIRECTION ( 'NONE',  ( -1.000000000000000000, -0.000000000000000000, -0.000000000000000000 ) ) ;
#503 = APPLICATION_CONTEXT ( 'automotive_design' ) ;
#504 = AXIS2_PLACEMENT_3D ( 'NONE', #1104, #1192, #90 ) ;
#505 = EDGE_CURVE ( 'NONE', #649, #418, #346, .T. ) ;
#506 = AXIS2_PLACEMENT_3D ( 'NONE', #616, #712, #1087 ) ;
#507 = ORIENTED_EDGE ( 'NONE', *, *, #520, .F. ) ;
#508 = DIRECTION ( 'NONE',  ( 1.000000000000000000, 0.000000000000000000, 0.000000000000000000 ) ) ;
#509 = DIRECTION ( 'NONE',  ( 0.000000000000000000, 0.000000000000000000, 1.000000000000000000 ) ) ;
#510 = ORIENTED_EDGE ( 'NONE', *, *, #243, .T. ) ;
#511 = SPHERICAL_SURFACE ( 'NONE', #506, 1.000000000000000000 ) ;
#512 = AXIS2_PLACEMENT_3D ( 'NONE', #1034, #118, #489 ) ;
#513 = ORIENTED_EDGE ( 'NONE', *, *, #109, .T. ) ;
#514 = VERTEX_POINT ( 'NONE', #338 ) ;
#515 = CARTESIAN_POINT ( 'NONE',  ( 1.000000000000000000, -16.00000000000000000, 1.000000000000000888 ) ) ;
#516 = PLANE ( 'NONE',  #570 ) ;
#517 = LINE ( 'NONE', #889, #681 ) ;
#518 = EDGE_CURVE ( 'NONE', #405, #726, #909, .T. ) ;
#519 = UNCERTAINTY_MEASURE_WITH_UNIT (LENGTH_MEASURE( 1.000000000000000082E-05 ), #778, 'distance_accuracy_value', 'NONE');
#520 = EDGE_CURVE ( 'NONE', #649, #903, #256, .T. ) ;
#521 = CARTESIAN_POINT ( 'NONE',  ( 11.99999999999999645, -5.000000000000000000, 3.000000000000000000 ) ) ;
#522 = FACE_OUTER_BOUND ( 'NONE', #715, .T. ) ;
#523 = DIRECTION ( 'NONE',  ( 0.000000000000000000, -0.000000000000000000, -1.000000000000000000 ) ) ;
#524 = AXIS2_PLACEMENT_3D ( 'NONE', #1206, #396, #24 ) ;
#525 = VECTOR ( 'NONE', #203, 1000.000000000000000 ) ;
#526 = ORIENTED_EDGE ( 'NONE', *, *, #941, .T. ) ;
#527 = CYLINDRICAL_SURFACE ( 'NONE', #72, 1.000000000000000888 ) ;
#528 = EDGE_CURVE ( 'NONE', #357, #28, #917, .T. ) ;
#529 = CARTESIAN_POINT ( 'NONE',  ( 27.00000000000000355, -8.000000000000000000, 0.000000000000000000 ) ) ;
#530 = DIRECTION ( 'NONE',  ( -0.000000000000000000, 0.000000000000000000, 1.000000000000000000 ) ) ;
#531 = AXIS2_PLACEMENT_3D ( 'NONE', #705, #237, #1172 ) ;
#532 = ORIENTED_EDGE ( 'NONE', *, *, #970, .F. ) ;
#533 = ADVANCED_FACE ( 'NONE', ( #60 ), #429, .T. ) ;
#534 = ORIENTED_EDGE ( 'NONE', *, *, #835, .T. ) ;
#535 = PRESENTATION_STYLE_ASSIGNMENT (( #733 ) ) ;
#536 = EDGE_CURVE ( 'NONE', #152, #418, #984, .T. ) ;
#537 = CARTESIAN_POINT ( 'NONE',  ( 24.00000000000000000, -5.000000000000000888, 3.000000000000000000 ) ) ;
#538 = VERTEX_POINT ( 'NONE', #114 ) ;
#539 = ORIENTED_EDGE ( 'NONE', *, *, #206, .F. ) ;
#540 =( LENGTH_UNIT ( ) NAMED_UNIT ( * ) SI_UNIT ( .MILLI., .METRE. ) );
#541 = DIRECTION ( 'NONE',  ( 0.000000000000000000, 0.000000000000000000, -1.000000000000000000 ) ) ;
#542 = ADVANCED_FACE ( 'NONE', ( #1126 ), #763, .F. ) ;
#543 = VERTEX_POINT ( 'NONE', #952 ) ;
#544 = ORIENTED_EDGE ( 'NONE', *, *, #1049, .T. ) ;
#545 = DIRECTION ( 'NONE',  ( 0.000000000000000000, -1.000000000000000000, 0.000000000000000000 ) ) ;
#546 = CARTESIAN_POINT ( 'NONE',  ( 0.000000000000000000, 0.000000000000000000, 0.000000000000000000 ) ) ;
#547 = CIRCLE ( 'NONE', #662, 1.000000000000000000 ) ;
#548 = ORIENTED_EDGE ( 'NONE', *, *, #193, .T. ) ;
#549 = DIRECTION ( 'NONE',  ( 0.000000000000000000, 0.000000000000000000, 1.000000000000000000 ) ) ;
#550 = EDGE_LOOP ( 'NONE', ( #1070, #81, #345, #1102 ) ) ;
#551 = CIRCLE ( 'NONE', #1136, 1.000000000000000000 ) ;
#552 = ORIENTED_EDGE ( 'NONE', *, *, #970, .T. ) ;
#553 = AXIS2_PLACEMENT_3D ( 'NONE', #986, #614, #871 ) ;
#554 = SHAPE_DEFINITION_REPRESENTATION ( #1068, #1201 ) ;
#555 = EDGE_LOOP ( 'NONE', ( #513, #167, #851, #367 ) ) ;
#556 = DIRECTION ( 'NONE',  ( 0.000000000000000000, -1.000000000000000000, 0.000000000000000000 ) ) ;
#557 = EDGE_LOOP ( 'NONE', ( #776, #205, #1097, #401 ) ) ;
#558 = EDGE_CURVE ( 'NONE', #874, #1112, #849, .T. ) ;
#559 = FACE_BOUND ( 'NONE', #87, .T. ) ;
#560 = DIRECTION ( 'NONE',  ( 0.000000000000000000, 0.000000000000000000, 1.000000000000000000 ) ) ;
#561 = VERTEX_POINT ( 'NONE', #568 ) ;
#562 = DIRECTION ( 'NONE',  ( -0.000000000000000000, 1.000000000000000000, -0.000000000000000000 ) ) ;
#563 = EDGE_LOOP ( 'NONE', ( #498, #802 ) ) ;
#564 = AXIS2_PLACEMENT_3D ( 'NONE', #988, #48, #238 ) ;
#565 = DIRECTION ( 'NONE',  ( 0.000000000000000000, 0.000000000000000000, -1.000000000000000000 ) ) ;
#566 = DIRECTION ( 'NONE',  ( 0.000000000000000000, 0.000000000000000000, 1.000000000000000000 ) ) ;
#567 = DIRECTION ( 'NONE',  ( -1.000000000000000000, 0.000000000000000000, 0.000000000000000000 ) ) ;
#568 = CARTESIAN_POINT ( 'NONE',  ( 11.99999999999999645, -11.00000000000000000, 3.000000000000000000 ) ) ;
#569 = VERTEX_POINT ( 'NONE', #484 ) ;
#570 = AXIS2_PLACEMENT_3D ( 'NONE', #330, #987, #136 ) ;
#571 = DIRECTION ( 'NONE',  ( 0.000000000000000000, -1.000000000000000000, 0.000000000000000000 ) ) ;
#572 = DIRECTION ( 'NONE',  ( -1.000000000000000000, 0.000000000000000000, 0.000000000000000000 ) ) ;
#573 = EDGE_CURVE ( 'NONE', #561, #1208, #682, .T. ) ;
#574 = CARTESIAN_POINT ( 'NONE',  ( 5.999999999999998224, -7.999999999999998224, 3.500000000000000000 ) ) ;
#575 = DIRECTION ( 'NONE',  ( 0.000000000000000000, 1.000000000000000000, 0.000000000000000000 ) ) ;
#576 = ORIENTED_EDGE ( 'NONE', *, *, #786, .F. ) ;
#577 = CARTESIAN_POINT ( 'NONE',  ( 1.000000000000000000, 0.000000000000000000, 1.000000000000000888 ) ) ;
#578 = CARTESIAN_POINT ( 'NONE',  ( 30.00000000000000000, -8.000000000000000000, 3.500000000000000000 ) ) ;
#579 = DIRECTION ( 'NONE',  ( -0.000000000000000000, -0.000000000000000000, 1.000000000000000000 ) ) ;
#580 = ADVANCED_FACE ( 'NONE', ( #940 ), #383, .F. ) ;
#581 = ORIENTED_EDGE ( 'NONE', *, *, #1199, .T. ) ;
#582 = FACE_OUTER_BOUND ( 'NONE', #555, .T. ) ;
#583 = CYLINDRICAL_SURFACE ( 'NONE', #647, 1.000000000000000000 ) ;
#584 = AXIS2_PLACEMENT_3D ( 'NONE', #654, #565, #111 ) ;
#585 = LINE ( 'NONE', #842, #482 ) ;
#586 = FACE_OUTER_BOUND ( 'NONE', #42, .T. ) ;
#587 = ORIENTED_EDGE ( 'NONE', *, *, #884, .F. ) ;
#588 = CARTESIAN_POINT ( 'NONE',  ( 5.000000000000000888, -8.000000000000000000, 23.00000000000000000 ) ) ;
#589 = CARTESIAN_POINT ( 'NONE',  ( 24.00000000000000000, -5.000000000000000888, 0.000000000000000000 ) ) ;
#590 = CIRCLE ( 'NONE', #800, 2.999999999999995559 ) ;
#591 = ORIENTED_EDGE ( 'NONE', *, *, #684, .T. ) ;
#592 = LINE ( 'NONE', #126, #33 ) ;
#593 = AXIS2_PLACEMENT_3D ( 'NONE', #1072, #406, #992 ) ;
#594 = EDGE_LOOP ( 'NONE', ( #710, #1202, #467, #161 ) ) ;
#595 = DIRECTION ( 'NONE',  ( 0.000000000000000000, 1.000000000000000000, 0.000000000000000000 ) ) ;
#596 = CARTESIAN_POINT ( 'NONE',  ( 5.999999999999998224, -7.999999999999998224, 3.500000000000000000 ) ) ;
#597 = EDGE_CURVE ( 'NONE', #1050, #649, #1075, .T. ) ;
#598 = CARTESIAN_POINT ( 'NONE',  ( 1.000000000000000000, -15.00000000000000000, 1.000000000000000888 ) ) ;
#599 = VERTEX_POINT ( 'NONE', #677 ) ;
#600 = VECTOR ( 'NONE', #716, 1000.000000000000000 ) ;
#601 = FACE_OUTER_BOUND ( 'NONE', #1093, .T. ) ;
#602 = PLANE ( 'NONE',  #157 ) ;
#603 = EDGE_LOOP ( 'NONE', ( #250, #532 ) ) ;
#604 = DIRECTION ( 'NONE',  ( 0.000000000000000000, -1.000000000000000000, 0.000000000000000000 ) ) ;
#605 = CARTESIAN_POINT ( 'NONE',  ( 32.00000000000000000, -8.000000000000000000, 23.00000000000000000 ) ) ;
#606 = AXIS2_PLACEMENT_3D ( 'NONE', #159, #910, #736 ) ;
#607 = VERTEX_POINT ( 'NONE', #301 ) ;
#608 = DIRECTION ( 'NONE',  ( -0.000000000000000000, -0.000000000000000000, 1.000000000000000000 ) ) ;
#609 = DIRECTION ( 'NONE',  ( 1.000000000000000000, 0.000000000000000000, -0.000000000000000000 ) ) ;
#610 = CARTESIAN_POINT ( 'NONE',  ( 0.000000000000000000, 0.000000000000000000, 2.999999999999999112 ) ) ;
#611 = VECTOR ( 'NONE', #1132, 1000.000000000000000 ) ;
#612 = ADVANCED_FACE ( 'NONE', ( #755 ), #108, .T. ) ;
#613 = ORIENTED_EDGE ( 'NONE', *, *, #735, .T. ) ;
#614 = DIRECTION ( 'NONE',  ( -0.000000000000000000, -0.000000000000000000, -1.000000000000000000 ) ) ;
#615 = DIRECTION ( 'NONE',  ( -0.000000000000000000, 1.000000000000000000, -0.000000000000000000 ) ) ;
#616 = CARTESIAN_POINT ( 'NONE',  ( 1.000000000000000000, -15.00000000000000000, 1.000000000000000000 ) ) ;
#617 = ORIENTED_EDGE ( 'NONE', *, *, #1066, .T. ) ;
#618 = ORIENTED_EDGE ( 'NONE', *, *, #1106, .F. ) ;
#619 = CARTESIAN_POINT ( 'NONE',  ( 5.999999999999998224, -5.000000000000005329, 3.500000000000000000 ) ) ;
#620 = ORIENTED_EDGE ( 'NONE', *, *, #929, .F. ) ;
#621 = ADVANCED_FACE ( 'NONE', ( #285 ), #1054, .F. ) ;
#622 = AXIS2_PLACEMENT_3D ( 'NONE', #769, #375, #1047 ) ;
#623 = VECTOR ( 'NONE', #1035, 1000.000000000000000 ) ;
#624 = EDGE_LOOP ( 'NONE', ( #811, #930, #638, #494 ) ) ;
#625 = EDGE_CURVE ( 'NONE', #1175, #607, #1036, .T. ) ;
#626 = VERTEX_POINT ( 'NONE', #210 ) ;
#627 = LINE ( 'NONE', #441, #696 ) ;
#628 = DIRECTION ( 'NONE',  ( 1.000000000000000000, 0.000000000000000000, -0.000000000000000000 ) ) ;
#629 = FACE_OUTER_BOUND ( 'NONE', #901, .T. ) ;
#630 = ORIENTED_EDGE ( 'NONE', *, *, #877, .F. ) ;
#631 = ORIENTED_EDGE ( 'NONE', *, *, #991, .T. ) ;
#632 = EDGE_LOOP ( 'NONE', ( #98, #539 ) ) ;
#633 = FACE_OUTER_BOUND ( 'NONE', #954, .T. ) ;
#634 = LINE ( 'NONE', #742, #942 ) ;
#635 = EDGE_CURVE ( 'NONE', #169, #989, #592, .T. ) ;
#636 = ORIENTED_EDGE ( 'NONE', *, *, #735, .F. ) ;
#637 = ORIENTED_EDGE ( 'NONE', *, *, #872, .T. ) ;
#638 = ORIENTED_EDGE ( 'NONE', *, *, #5, .F. ) ;
#639 = DIRECTION ( 'NONE',  ( -1.000000000000000000, 0.000000000000000000, 0.000000000000000000 ) ) ;
#640 = CARTESIAN_POINT ( 'NONE',  ( 34.99999999999999289, -1.000000000000000000, 23.00000000000000000 ) ) ;
#641 = ORIENTED_EDGE ( 'NONE', *, *, #884, .T. ) ;
#642 = EDGE_CURVE ( 'NONE', #2, #414, #80, .T. ) ;
#643 = AXIS2_PLACEMENT_3D ( 'NONE', #373, #366, #1022 ) ;
#644 = ORIENTED_EDGE ( 'NONE', *, *, #318, .T. ) ;
#645 = SURFACE_SIDE_STYLE ('',( #245 ) ) ;
#646 = CARTESIAN_POINT ( 'NONE',  ( 0.000000000000000000, -15.00000000000000000, 23.00000000000000000 ) ) ;
#647 = AXIS2_PLACEMENT_3D ( 'NONE', #958, #572, #368 ) ;
#648 = ADVANCED_FACE ( 'NONE', ( #586 ), #390, .T. ) ;
#649 = VERTEX_POINT ( 'NONE', #10 ) ;
#650 = VECTOR ( 'NONE', #595, 1000.000000000000000 ) ;
#651 = DIRECTION ( 'NONE',  ( -1.000000000000000000, 1.807003620809173954E-17, 0.000000000000000000 ) ) ;
#652 = DIRECTION ( 'NONE',  ( 0.000000000000000000, -1.000000000000000000, 0.000000000000000000 ) ) ;
#653 = ORIENTED_EDGE ( 'NONE', *, *, #1094, .F. ) ;
#654 = CARTESIAN_POINT ( 'NONE',  ( 34.99999999999999289, -1.000000000000000000, 1.000000000000000888 ) ) ;
#655 = DIRECTION ( 'NONE',  ( 0.000000000000000000, 0.000000000000000000, -1.000000000000000000 ) ) ;
#656 = CARTESIAN_POINT ( 'NONE',  ( 8.999999999999992895, -7.999999999999998224, 2.999999999999999112 ) ) ;
#657 = DIRECTION ( 'NONE',  ( 0.000000000000000000, 0.000000000000000000, -1.000000000000000000 ) ) ;
#658 = EDGE_CURVE ( 'NONE', #84, #514, #671, .T. ) ;
#659 = ORIENTED_EDGE ( 'NONE', *, *, #1082, .F. ) ;
#660 = EDGE_CURVE ( 'NONE', #726, #84, #198, .T. ) ;
#661 = CLOSED_SHELL ( 'NONE', ( #308, #1015, #795, #621, #807, #125, #955, #542, #912, #280, #309, #711, #231, #1179, #722, #102, #1083, #410, #1169, #378, #57, #580, #1141, #54, #533, #73, #1186, #426, #648, #1148, #612, #297, #466, #713, #89, #257, #1055, #144, #869 ) ) ;
#662 = AXIS2_PLACEMENT_3D ( 'NONE', #598, #417, #146 ) ;
#663 = CARTESIAN_POINT ( 'NONE',  ( 30.00000000000000000, -10.99999999999999467, 2.999999999999999112 ) ) ;
#664 = LINE ( 'NONE', #324, #743 ) ;
#665 = CARTESIAN_POINT ( 'NONE',  ( 30.00000000000000000, -8.000000000000000000, 0.000000000000000000 ) ) ;
#666 = CARTESIAN_POINT ( 'NONE',  ( 11.99999999999999645, -5.000000000000000000, 3.000000000000000000 ) ) ;
#667 = ORIENTED_EDGE ( 'NONE', *, *, #1008, .F. ) ;
#668 = AXIS2_PLACEMENT_3D ( 'NONE', #993, #423, #609 ) ;
#669 = DIRECTION ( 'NONE',  ( -1.000000000000000000, 0.000000000000000000, 0.000000000000000000 ) ) ;
#670 = CARTESIAN_POINT ( 'NONE',  ( 5.999999999999998224, -10.99999999999999289, 3.500000000000000000 ) ) ;
#671 = LINE ( 'NONE', #1042, #166 ) ;
#672 = EDGE_CURVE ( 'NONE', #241, #599, #186, .T. ) ;
#673 = PRODUCT_DEFINITION_CONTEXT ( 'detailed design', #503, 'design' ) ;
#674 = ORIENTED_EDGE ( 'NONE', *, *, #758, .F. ) ;
#675 = DIRECTION ( 'NONE',  ( -0.000000000000000000, 0.000000000000000000, 1.000000000000000000 ) ) ;
#676 = DIRECTION ( 'NONE',  ( -0.000000000000000000, 1.000000000000000000, 0.000000000000000000 ) ) ;
#677 = CARTESIAN_POINT ( 'NONE',  ( 27.00000000000000355, -8.000000000000000000, 2.999999999999999112 ) ) ;
#678 = EDGE_LOOP ( 'NONE', ( #507, #839, #200, #631 ) ) ;
#679 = LINE ( 'NONE', #1059, #212 ) ;
#680 = LINE ( 'NONE', #670, #922 ) ;
#681 = VECTOR ( 'NONE', #259, 1000.000000000000000 ) ;
#682 = LINE ( 'NONE', #1134, #775 ) ;
#683 = ORIENTED_EDGE ( 'NONE', *, *, #625, .F. ) ;
#684 = EDGE_CURVE ( 'NONE', #569, #514, #407, .T. ) ;
#685 = CARTESIAN_POINT ( 'NONE',  ( 30.00000000000000000, -8.000000000000000000, 2.999999999999999112 ) ) ;
#686 = LINE ( 'NONE', #589, #1188 ) ;
#687 = ORIENTED_EDGE ( 'NONE', *, *, #206, .T. ) ;
#688 = CARTESIAN_POINT ( 'NONE',  ( 5.999999999999998224, -1.500000000000000666, 23.00000000000000000 ) ) ;
#689 = FACE_OUTER_BOUND ( 'NONE', #153, .T. ) ;
#690 = ORIENTED_EDGE ( 'NONE', *, *, #845, .F. ) ;
#691 = DIRECTION ( 'NONE',  ( -0.000000000000000000, 0.000000000000000000, -1.000000000000000000 ) ) ;
#692 = CARTESIAN_POINT ( 'NONE',  ( 1.000000000000000000, -15.00000000000000000, 23.00000000000000000 ) ) ;
#693 = EDGE_LOOP ( 'NONE', ( #350, #1007, #883, #996 ) ) ;
#694 = LINE ( 'NONE', #1168, #979 ) ;
#695 = ORIENTED_EDGE ( 'NONE', *, *, #62, .F. ) ;
#696 = VECTOR ( 'NONE', #1012, 1000.000000000000000 ) ;
#697 = DIRECTION ( 'NONE',  ( 1.000000000000000000, 0.000000000000000000, -0.000000000000000000 ) ) ;
#698 = DIRECTION ( 'NONE',  ( 0.000000000000000000, -1.000000000000000000, 0.000000000000000000 ) ) ;
#699 = DIRECTION ( 'NONE',  ( -0.000000000000000000, 0.000000000000000000, 1.000000000000000000 ) ) ;
#700 = VECTOR ( 'NONE', #379, 1000.000000000000000 ) ;
#701 = ORIENTED_EDGE ( 'NONE', *, *, #1066, .F. ) ;
#702 = AXIS2_PLACEMENT_3D ( 'NONE', #640, #530, #731 ) ;
#703 = ORIENTED_EDGE ( 'NONE', *, *, #66, .F. ) ;
#704 = CYLINDRICAL_SURFACE ( 'NONE', #9, 1.000000000000000888 ) ;
#705 = CARTESIAN_POINT ( 'NONE',  ( 1.000000000000000000, -15.00000000000000000, 23.00000000000000000 ) ) ;
#706 = DIRECTION ( 'NONE',  ( -1.000000000000000000, 0.000000000000000000, -0.000000000000000000 ) ) ;
#707 = CARTESIAN_POINT ( 'NONE',  ( 5.999999999999998224, -1.500000000000000666, 2.999999999999999112 ) ) ;
#708 = AXIS2_PLACEMENT_3D ( 'NONE', #474, #295, #837 ) ;
#709 = EDGE_CURVE ( 'NONE', #714, #1050, #1173, .T. ) ;
#710 = ORIENTED_EDGE ( 'NONE', *, *, #953, .T. ) ;
#711 = ADVANCED_FACE ( 'NONE', ( #55 ), #36, .F. ) ;
#712 = DIRECTION ( 'NONE',  ( 1.000000000000000000, 0.000000000000000000, 0.000000000000000000 ) ) ;
#713 = ADVANCED_FACE ( 'NONE', ( #689 ), #511, .T. ) ;
#714 = VERTEX_POINT ( 'NONE', #319 ) ;
#715 = EDGE_LOOP ( 'NONE', ( #342, #744, #740, #130 ) ) ;
#716 = DIRECTION ( 'NONE',  ( 0.000000000000000000, -1.000000000000000000, 0.000000000000000000 ) ) ;
#717 = FILL_AREA_STYLE ('',( #252 ) ) ;
#718 = CARTESIAN_POINT ( 'NONE',  ( 5.999999999999998224, -1.500000000000000666, 23.00000000000000000 ) ) ;
#719 = AXIS2_PLACEMENT_3D ( 'NONE', #666, #296, #491 ) ;
#720 = ORIENTED_EDGE ( 'NONE', *, *, #747, .T. ) ;
#721 = EDGE_LOOP ( 'NONE', ( #38, #667, #242, #472 ) ) ;
#722 = ADVANCED_FACE ( 'NONE', ( #41 ), #974, .F. ) ;
#723 = CARTESIAN_POINT ( 'NONE',  ( 34.99999999999999289, -15.00000000000000000, 1.000000000000000000 ) ) ;
#724 = DIRECTION ( 'NONE',  ( -0.000000000000000000, 1.000000000000000000, -0.000000000000000000 ) ) ;
#725 = VECTOR ( 'NONE', #433, 1000.000000000000000 ) ;
#726 = VERTEX_POINT ( 'NONE', #999 ) ;
#727 = ORIENTED_EDGE ( 'NONE', *, *, #893, .F. ) ;
#728 = EDGE_LOOP ( 'NONE', ( #1143, #315 ) ) ;
#729 = DIRECTION ( 'NONE',  ( 0.000000000000000000, -1.000000000000000000, 0.000000000000000000 ) ) ;
#730 = CARTESIAN_POINT ( 'NONE',  ( 4.000000000000000888, -8.000000000000000000, 8.000000000000000000 ) ) ;
#731 = DIRECTION ( 'NONE',  ( 1.000000000000000000, 0.000000000000000000, 0.000000000000000000 ) ) ;
#732 = VERTEX_POINT ( 'NONE', #619 ) ;
#733 = SURFACE_STYLE_USAGE ( .BOTH. , #329 ) ;
#734 =( NAMED_UNIT ( * ) SI_UNIT ( $, .STERADIAN. ) SOLID_ANGLE_UNIT ( ) );
#735 = EDGE_CURVE ( 'NONE', #405, #59, #853, .T. ) ;
#736 = DIRECTION ( 'NONE',  ( -1.000000000000000000, 0.000000000000000000, 0.000000000000000000 ) ) ;
#737 = DIRECTION ( 'NONE',  ( -0.000000000000000000, -0.000000000000000000, 1.000000000000000000 ) ) ;
#738 = EDGE_CURVE ( 'NONE', #569, #234, #217, .T. ) ;
#739 = AXIS2_PLACEMENT_3D ( 'NONE', #63, #254, #430 ) ;
#740 = ORIENTED_EDGE ( 'NONE', *, *, #1049, .F. ) ;
#741 = LINE ( 'NONE', #275, #115 ) ;
#742 = CARTESIAN_POINT ( 'NONE',  ( 36.00000000000000000, -1.000000000000000000, 23.00000000000000000 ) ) ;
#743 = VECTOR ( 'NONE', #222, 1000.000000000000000 ) ;
#744 = ORIENTED_EDGE ( 'NONE', *, *, #573, .F. ) ;
#745 = CARTESIAN_POINT ( 'NONE',  ( 27.00000000000000355, -8.000000000000000000, 3.500000000000000000 ) ) ;
#746 = CARTESIAN_POINT ( 'NONE',  ( 34.99999999999999289, 0.000000000000000000, 0.000000000000000000 ) ) ;
#747 = EDGE_CURVE ( 'NONE', #428, #1149, #1128, .T. ) ;
#748 = DIRECTION ( 'NONE',  ( -0.000000000000000000, -0.000000000000000000, 1.000000000000000000 ) ) ;
#749 = CARTESIAN_POINT ( 'NONE',  ( 5.999999999999998224, -14.50000000000000000, 2.999999999999999112 ) ) ;
#750 = EDGE_CURVE ( 'NONE', #414, #543, #547, .T. ) ;
#751 = STYLED_ITEM ( 'NONE', ( #347 ), #1201 ) ;
#752 = ORIENTED_EDGE ( 'NONE', *, *, #816, .T. ) ;
#753 = CARTESIAN_POINT ( 'NONE',  ( 30.00000000000000000, -8.000000000000000000, 0.000000000000000000 ) ) ;
#754 = DIRECTION ( 'NONE',  ( 1.000000000000000000, 0.000000000000000000, 0.000000000000000000 ) ) ;
#755 = FACE_OUTER_BOUND ( 'NONE', #557, .T. ) ;
#756 = ORIENTED_EDGE ( 'NONE', *, *, #838, .F. ) ;
#757 = VECTOR ( 'NONE', #1197, 1000.000000000000000 ) ;
#758 = EDGE_CURVE ( 'NONE', #902, #230, #1076, .T. ) ;
#759 = AXIS2_PLACEMENT_3D ( 'NONE', #29, #790, #402 ) ;
#760 = LINE ( 'NONE', #1131, #263 ) ;
#761 = DIRECTION ( 'NONE',  ( 1.000000000000000000, 0.000000000000000000, -0.000000000000000000 ) ) ;
#762 = LINE ( 'NONE', #23, #1014 ) ;
#763 = PLANE ( 'NONE',  #424 ) ;
#764 = ORIENTED_EDGE ( 'NONE', *, *, #5, .T. ) ;
#765 = AXIS2_PLACEMENT_3D ( 'NONE', #1004, #1013, #354 ) ;
#766 = FACE_OUTER_BOUND ( 'NONE', #92, .T. ) ;
#767 = CARTESIAN_POINT ( 'NONE',  ( 1.000000000000000000, 0.000000000000000000, 23.00000000000000000 ) ) ;
#768 = FACE_OUTER_BOUND ( 'NONE', #921, .T. ) ;
#769 = CARTESIAN_POINT ( 'NONE',  ( 0.000000000000000000, -15.00000000000000000, 1.000000000000000888 ) ) ;
#770 = ORIENTED_EDGE ( 'NONE', *, *, #774, .F. ) ;
#771 = CARTESIAN_POINT ( 'NONE',  ( 34.99999999999999289, -15.00000000000000000, 23.00000000000000000 ) ) ;
#772 = CARTESIAN_POINT ( 'NONE',  ( 30.00000000000000000, -10.99999999999999467, 3.500000000000000000 ) ) ;
#773 = DIRECTION ( 'NONE',  ( 0.000000000000000000, 0.000000000000000000, 1.000000000000000000 ) ) ;
#774 = EDGE_CURVE ( 'NONE', #239, #428, #694, .T. ) ;
#775 = VECTOR ( 'NONE', #843, 1000.000000000000000 ) ;
#776 = ORIENTED_EDGE ( 'NONE', *, *, #181, .T. ) ;
#777 = FACE_OUTER_BOUND ( 'NONE', #721, .T. ) ;
#778 =( LENGTH_UNIT ( ) NAMED_UNIT ( * ) SI_UNIT ( .MILLI., .METRE. ) );
#779 = ORIENTED_EDGE ( 'NONE', *, *, #403, .F. ) ;
#780 = AXIS2_PLACEMENT_3D ( 'NONE', #103, #192, #967 ) ;
#781 = DIRECTION ( 'NONE',  ( -1.000000000000000000, 0.000000000000000000, -0.000000000000000000 ) ) ;
#782 = EDGE_CURVE ( 'NONE', #1159, #49, #322, .T. ) ;
#783 = ORIENTED_EDGE ( 'NONE', *, *, #1117, .T. ) ;
#784 = DIRECTION ( 'NONE',  ( -0.000000000000000000, -0.000000000000000000, -1.000000000000000000 ) ) ;
#785 = CARTESIAN_POINT ( 'NONE',  ( 5.999999999999998224, -14.50000000000000000, 2.999999999999999112 ) ) ;
#786 = EDGE_CURVE ( 'NONE', #538, #414, #1158, .T. ) ;
#787 = ORIENTED_EDGE ( 'NONE', *, *, #99, .F. ) ;
#788 = CARTESIAN_POINT ( 'NONE',  ( 3.000000000000000888, -8.000000000000000000, 8.000000000000000000 ) ) ;
#789 =( NAMED_UNIT ( * ) PLANE_ANGLE_UNIT ( ) SI_UNIT ( $, .RADIAN. ) );
#790 = DIRECTION ( 'NONE',  ( -0.000000000000000000, -0.000000000000000000, 1.000000000000000000 ) ) ;
#791 = VERTEX_POINT ( 'NONE', #796 ) ;
#792 = CARTESIAN_POINT ( 'NONE',  ( 5.999999999999998224, -5.000000000000004441, 3.500000000000000000 ) ) ;
#793 = DIRECTION ( 'NONE',  ( -0.000000000000000000, 1.000000000000000000, -0.000000000000000000 ) ) ;
#794 = CIRCLE ( 'NONE', #1111, 1.000000000000000000 ) ;
#795 = ADVANCED_FACE ( 'NONE', ( #425 ), #131, .F. ) ;
#796 = CARTESIAN_POINT ( 'NONE',  ( 34.99999999999999289, -15.00000000000000000, 0.000000000000000000 ) ) ;
#797 = ORIENTED_EDGE ( 'NONE', *, *, #900, .F. ) ;
#798 = ORIENTED_EDGE ( 'NONE', *, *, #925, .F. ) ;
#799 = FACE_OUTER_BOUND ( 'NONE', #924, .T. ) ;
#800 = AXIS2_PLACEMENT_3D ( 'NONE', #276, #655, #189 ) ;
#801 = AXIS2_PLACEMENT_3D ( 'NONE', #1064, #128, #508 ) ;
#802 = ORIENTED_EDGE ( 'NONE', *, *, #863, .T. ) ;
#803 = ORIENTED_EDGE ( 'NONE', *, *, #660, .F. ) ;
#804 =( NAMED_UNIT ( * ) PLANE_ANGLE_UNIT ( ) SI_UNIT ( $, .RADIAN. ) );
#805 = CARTESIAN_POINT ( 'NONE',  ( 5.999999999999998224, -7.999999999999998224, 3.500000000000000000 ) ) ;
#806 = VERTEX_POINT ( 'NONE', #1081 ) ;
#807 = ADVANCED_FACE ( 'NONE', ( #799, #1067 ), #882, .T. ) ;
#808 = ORIENTED_EDGE ( 'NONE', *, *, #782, .F. ) ;
#809 = LINE ( 'NONE', #51, #600 ) ;
#810 = PLANE ( 'NONE',  #490 ) ;
#811 = ORIENTED_EDGE ( 'NONE', *, *, #658, .T. ) ;
#812 = EDGE_LOOP ( 'NONE', ( #1017, #701, #75, #336 ) ) ;
#813 = CIRCLE ( 'NONE', #643, 1.000000000000000000 ) ;
#814 = AXIS2_PLACEMENT_3D ( 'NONE', #1121, #278, #657 ) ;
#815 = ORIENTED_EDGE ( 'NONE', *, *, #495, .F. ) ;
#816 = EDGE_CURVE ( 'NONE', #59, #966, #517, .T. ) ;
#817 = FACE_OUTER_BOUND ( 'NONE', #1118, .T. ) ;
#818 = DIRECTION ( 'NONE',  ( -0.000000000000000000, -0.000000000000000000, 1.000000000000000000 ) ) ;
#819 = LINE ( 'NONE', #264, #485 ) ;
#820 = AXIS2_PLACEMENT_3D ( 'NONE', #862, #560, #1046 ) ;
#821 = EDGE_CURVE ( 'NONE', #538, #916, #269, .T. ) ;
#822 = EDGE_LOOP ( 'NONE', ( #412, #637, #544, #67 ) ) ;
#823 = DIRECTION ( 'NONE',  ( -0.000000000000000000, -0.000000000000000000, 1.000000000000000000 ) ) ;
#824 = SPHERICAL_SURFACE ( 'NONE', #504, 1.000000000000000000 ) ;
#825 = DIRECTION ( 'NONE',  ( -1.000000000000000000, 0.000000000000000000, 0.000000000000000000 ) ) ;
#826 = ORIENTED_EDGE ( 'NONE', *, *, #1164, .F. ) ;
#827 = ORIENTED_EDGE ( 'NONE', *, *, #344, .T. ) ;
#828 = APPLICATION_PROTOCOL_DEFINITION ( 'draft international standard', 'automotive_design', 1998, #1043 ) ;
#829 = DIRECTION ( 'NONE',  ( 0.000000000000000000, 0.000000000000000000, -1.000000000000000000 ) ) ;
#830 = DIRECTION ( 'NONE',  ( 0.000000000000000000, 0.000000000000000000, 1.000000000000000000 ) ) ;
#831 = EDGE_CURVE ( 'NONE', #1175, #392, #165, .T. ) ;
#832 = AXIS2_PLACEMENT_3D ( 'NONE', #1110, #830, #85 ) ;
#833 = CIRCLE ( 'NONE', #584, 1.000000000000000888 ) ;
#834 = EDGE_LOOP ( 'NONE', ( #618, #1077, #1025, #576 ) ) ;
#835 = EDGE_CURVE ( 'NONE', #326, #372, #819, .T. ) ;
#836 = DIRECTION ( 'NONE',  ( 0.000000000000000000, 1.000000000000000000, 0.000000000000000000 ) ) ;
#837 = DIRECTION ( 'NONE',  ( 0.000000000000000000, 0.000000000000000000, 1.000000000000000000 ) ) ;
#838 = EDGE_CURVE ( 'NONE', #1006, #714, #12, .T. ) ;
#839 = ORIENTED_EDGE ( 'NONE', *, *, #505, .T. ) ;
#840 = DIRECTION ( 'NONE',  ( -1.000000000000000000, 0.000000000000000000, -0.000000000000000000 ) ) ;
#841 = CARTESIAN_POINT ( 'NONE',  ( 4.000000000000000888, -8.000000000000000000, 8.000000000000000000 ) ) ;
#842 = CARTESIAN_POINT ( 'NONE',  ( 1.000000000000000000, 0.000000000000000000, 23.00000000000000000 ) ) ;
#843 = DIRECTION ( 'NONE',  ( -0.000000000000000000, -0.000000000000000000, -1.000000000000000000 ) ) ;
#844 = VECTOR ( 'NONE', #509, 1000.000000000000000 ) ;
#845 = EDGE_CURVE ( 'NONE', #732, #446, #155, .T. ) ;
#846 = VERTEX_POINT ( 'NONE', #1182 ) ;
#847 = DIRECTION ( 'NONE',  ( 1.000000000000000000, -7.228014483236694583E-17, -0.000000000000000000 ) ) ;
#848 = DIRECTION ( 'NONE',  ( -0.000000000000000000, -1.000000000000000000, -0.000000000000000000 ) ) ;
#849 = LINE ( 'NONE', #499, #363 ) ;
#850 = PRESENTATION_LAYER_ASSIGNMENT (  '', '', ( #356 ) ) ;
#851 = ORIENTED_EDGE ( 'NONE', *, *, #536, .F. ) ;
#852 = VECTOR ( 'NONE', #604, 1000.000000000000000 ) ;
#853 = CIRCLE ( 'NONE', #404, 2.999999999999993783 ) ;
#854 = DIRECTION ( 'NONE',  ( -1.000000000000000000, 0.000000000000000000, 0.000000000000000000 ) ) ;
#855 = LINE ( 'NONE', #16, #389 ) ;
#856 = CARTESIAN_POINT ( 'NONE',  ( 32.99999999999999289, -8.000000000000000000, 3.500000000000000000 ) ) ;
#857 = DIRECTION ( 'NONE',  ( 0.000000000000000000, 0.000000000000000000, 1.000000000000000000 ) ) ;
#858 = ORIENTED_EDGE ( 'NONE', *, *, #1130, .F. ) ;
#859 = VECTOR ( 'NONE', #394, 1000.000000000000000 ) ;
#860 = VECTOR ( 'NONE', #784, 1000.000000000000000 ) ;
#861 = DIRECTION ( 'NONE',  ( 1.000000000000000000, 0.000000000000000000, 0.000000000000000000 ) ) ;
#862 = CARTESIAN_POINT ( 'NONE',  ( 4.000000000000000888, -8.000000000000000000, 23.00000000000000000 ) ) ;
#863 = EDGE_CURVE ( 'NONE', #626, #1114, #1200, .T. ) ;
#864 = DIRECTION ( 'NONE',  ( -0.000000000000000000, -0.000000000000000000, 1.000000000000000000 ) ) ;
#865 = ORIENTED_EDGE ( 'NONE', *, *, #344, .F. ) ;
#866 = FACE_OUTER_BOUND ( 'NONE', #1196, .T. ) ;
#867 = CARTESIAN_POINT ( 'NONE',  ( 11.99999999999999645, -5.000000000000000000, 3.000000000000000000 ) ) ;
#868 = CARTESIAN_POINT ( 'NONE',  ( 24.00000000000000000, -11.00000000000000178, 3.000000000000000000 ) ) ;
#869 = ADVANCED_FACE ( 'NONE', ( #1198 ), #911, .T. ) ;
#870 = ORIENTED_EDGE ( 'NONE', *, *, #900, .T. ) ;
#871 = DIRECTION ( 'NONE',  ( -1.000000000000000000, 0.000000000000000000, 0.000000000000000000 ) ) ;
#872 = EDGE_CURVE ( 'NONE', #486, #902, #361, .T. ) ;
#873 = PLANE ( 'NONE',  #905 ) ;
#874 = VERTEX_POINT ( 'NONE', #1193 ) ;
#875 = AXIS2_PLACEMENT_3D ( 'NONE', #785, #223, #523 ) ;
#876 = CARTESIAN_POINT ( 'NONE',  ( 30.00000000000000000, -14.50000000000000000, 2.999999999999999112 ) ) ;
#877 = EDGE_CURVE ( 'NONE', #806, #239, #96, .T. ) ;
#878 = ORIENTED_EDGE ( 'NONE', *, *, #1096, .T. ) ;
#879 = VECTOR ( 'NONE', #793, 1000.000000000000000 ) ;
#880 = CARTESIAN_POINT ( 'NONE',  ( 5.999999999999998224, -1.500000000000000666, 2.999999999999999112 ) ) ;
#881 = ORIENTED_EDGE ( 'NONE', *, *, #597, .T. ) ;
#882 = PLANE ( 'NONE',  #1167 ) ;
#883 = ORIENTED_EDGE ( 'NONE', *, *, #709, .F. ) ;
#884 = EDGE_CURVE ( 'NONE', #1112, #418, #551, .T. ) ;
#885 = DIRECTION ( 'NONE',  ( -1.000000000000000000, 0.000000000000000000, 0.000000000000000000 ) ) ;
#886 = CARTESIAN_POINT ( 'NONE',  ( 30.00000000000000000, -1.500000000000001110, 2.999999999999999112 ) ) ;
#887 = CARTESIAN_POINT ( 'NONE',  ( 30.00000000000000000, -8.000000000000000000, 3.500000000000000000 ) ) ;
#888 =( GEOMETRIC_REPRESENTATION_CONTEXT ( 3 ) GLOBAL_UNCERTAINTY_ASSIGNED_CONTEXT ( ( #519 ) ) GLOBAL_UNIT_ASSIGNED_CONTEXT ( ( #778, #789, #972 ) ) REPRESENTATION_CONTEXT ( 'NONE', 'WORKASPACE' ) );
#889 = CARTESIAN_POINT ( 'NONE',  ( 8.999999999999992895, -7.999999999999998224, 3.500000000000000000 ) ) ;
#890 = ORIENTED_EDGE ( 'NONE', *, *, #181, .F. ) ;
#891 = CARTESIAN_POINT ( 'NONE',  ( 34.99999999999999289, -1.000000000000000000, 0.000000000000000000 ) ) ;
#892 = AXIS2_PLACEMENT_3D ( 'NONE', #771, #299, #1052 ) ;
#893 = EDGE_CURVE ( 'NONE', #49, #1159, #985, .T. ) ;
#894 = CARTESIAN_POINT ( 'NONE',  ( 30.00000000000000000, -1.500000000000001110, 2.999999999999999112 ) ) ;
#895 = ORIENTED_EDGE ( 'NONE', *, *, #1056, .T. ) ;
#896 = SURFACE_STYLE_USAGE ( .BOTH. , #645 ) ;
#897 = FACE_OUTER_BOUND ( 'NONE', #1107, .T. ) ;
#898 = PLANE ( 'NONE',  #58 ) ;
#899 = VECTOR ( 'NONE', #724, 1000.000000000000000 ) ;
#900 = EDGE_CURVE ( 'NONE', #293, #1006, #634, .T. ) ;
#901 = EDGE_LOOP ( 'NONE', ( #548, #1122, #74, #937 ) ) ;
#902 = VERTEX_POINT ( 'NONE', #1023 ) ;
#903 = VERTEX_POINT ( 'NONE', #646 ) ;
#904 = LINE ( 'NONE', #718, #1171 ) ;
#905 = AXIS2_PLACEMENT_3D ( 'NONE', #145, #1073, #965 ) ;
#906 = ORIENTED_EDGE ( 'NONE', *, *, #635, .T. ) ;
#907 = ORIENTED_EDGE ( 'NONE', *, *, #137, .F. ) ;
#908 = ORIENTED_EDGE ( 'NONE', *, *, #273, .T. ) ;
#909 = LINE ( 'NONE', #450, #1135 ) ;
#910 = DIRECTION ( 'NONE',  ( 0.000000000000000000, 1.000000000000000000, 0.000000000000000000 ) ) ;
#911 = CYLINDRICAL_SURFACE ( 'NONE', #461, 1.000000000000000000 ) ;
#912 = ADVANCED_FACE ( 'NONE', ( #1019 ), #898, .F. ) ;
#913 = CIRCLE ( 'NONE', #97, 1.000000000000000000 ) ;
#914 = VECTOR ( 'NONE', #292, 1000.000000000000000 ) ;
#915 = EDGE_LOOP ( 'NONE', ( #969, #1174, #70, #432 ) ) ;
#916 = VERTEX_POINT ( 'NONE', #64 ) ;
#917 = LINE ( 'NONE', #82, #138 ) ;
#918 = PRODUCT_CONTEXT ( 'NONE', #1043, 'mechanical' ) ;
#919 = PLANE ( 'NONE',  #283 ) ;
#920 = DIRECTION ( 'NONE',  ( -1.000000000000000000, 1.807003620809173954E-17, -0.000000000000000000 ) ) ;
#921 = EDGE_LOOP ( 'NONE', ( #906, #1124, #173, #981 ) ) ;
#922 = VECTOR ( 'NONE', #566, 1000.000000000000000 ) ;
#923 = CIRCLE ( 'NONE', #801, 2.999999999999993783 ) ;
#924 = EDGE_LOOP ( 'NONE', ( #636, #216, #764, #397, #865, #420, #1089, #1108, #272, #180 ) ) ;
#925 = EDGE_CURVE ( 'NONE', #357, #1006, #457, .T. ) ;
#926 = SPHERICAL_SURFACE ( 'NONE', #606, 1.000000000000000000 ) ;
#927 = DIRECTION ( 'NONE',  ( 0.000000000000000000, -0.000000000000000000, -1.000000000000000000 ) ) ;
#928 = COLOUR_RGB ( '',1.000000000000000000, 1.000000000000000000, 1.000000000000000000 ) ;
#929 = EDGE_CURVE ( 'NONE', #446, #326, #447, .T. ) ;
#930 = ORIENTED_EDGE ( 'NONE', *, *, #684, .F. ) ;
#931 = DIRECTION ( 'NONE',  ( -1.000000000000000000, -0.000000000000000000, -0.000000000000000000 ) ) ;
#932 = CARTESIAN_POINT ( 'NONE',  ( 8.999999999999992895, -7.999999999999998224, 0.000000000000000000 ) ) ;
#933 = FACE_OUTER_BOUND ( 'NONE', #35, .T. ) ;
#934 = VECTOR ( 'NONE', #579, 1000.000000000000000 ) ;
#935 = ORIENTED_EDGE ( 'NONE', *, *, #14, .F. ) ;
#936 = PLANE ( 'NONE',  #1074 ) ;
#937 = ORIENTED_EDGE ( 'NONE', *, *, #786, .T. ) ;
#938 = DIRECTION ( 'NONE',  ( 0.000000000000000000, -0.000000000000000000, 1.000000000000000000 ) ) ;
#939 = CARTESIAN_POINT ( 'NONE',  ( 5.999999999999998224, -14.50000000000000000, 23.00000000000000000 ) ) ;
#940 = FACE_OUTER_BOUND ( 'NONE', #1005, .T. ) ;
#941 = EDGE_CURVE ( 'NONE', #372, #966, #232, .T. ) ;
#942 = VECTOR ( 'NONE', #737, 1000.000000000000000 ) ;
#943 = EDGE_LOOP ( 'NONE', ( #1057, #1088, #306 ) ) ;
#944 = LINE ( 'NONE', #468, #53 ) ;
#945 = PLANE ( 'NONE',  #963 ) ;
#946 = DIRECTION ( 'NONE',  ( -1.000000000000000000, 0.000000000000000000, 0.000000000000000000 ) ) ;
#947 = AXIS2_PLACEMENT_3D ( 'NONE', #546, #88, #1109 ) ;
#948 = ORIENTED_EDGE ( 'NONE', *, *, #86, .T. ) ;
#949 = CARTESIAN_POINT ( 'NONE',  ( 34.99999999999999289, -1.000000000000000000, 1.000000000000000000 ) ) ;
#950 = LINE ( 'NONE', #112, #859 ) ;
#951 = CARTESIAN_POINT ( 'NONE',  ( 30.00000000000000000, -10.99999999999999467, 3.500000000000000000 ) ) ;
#952 = CARTESIAN_POINT ( 'NONE',  ( 0.000000000000000000, -15.00000000000000000, 1.000000000000000888 ) ) ;
#953 = EDGE_CURVE ( 'NONE', #607, #983, #904, .T. ) ;
#954 = EDGE_LOOP ( 'NONE', ( #25, #437, #587 ) ) ;
#955 = ADVANCED_FACE ( 'NONE', ( #629 ), #810, .F. ) ;
#956 = CIRCLE ( 'NONE', #419, 2.999999999999993783 ) ;
#957 = CARTESIAN_POINT ( 'NONE',  ( 36.00000000000000000, -1.000000000000000000, 1.000000000000000888 ) ) ;
#958 = CARTESIAN_POINT ( 'NONE',  ( 0.000000000000000000, -1.000000000000000000, 1.000000000000000888 ) ) ;
#959 = CARTESIAN_POINT ( 'NONE',  ( 34.99999999999999289, -16.00000000000000000, 1.000000000000000888 ) ) ;
#960 = DIRECTION ( 'NONE',  ( 1.000000000000000000, -7.228014483236694583E-17, -0.000000000000000000 ) ) ;
#961 = AXIS2_PLACEMENT_3D ( 'NONE', #476, #575, #773 ) ;
#962 = ORIENTED_EDGE ( 'NONE', *, *, #573, .T. ) ;
#963 = AXIS2_PLACEMENT_3D ( 'NONE', #106, #469, #761 ) ;
#964 = CARTESIAN_POINT ( 'NONE',  ( -0.000000000000000000, -1.000000000000000000, 0.000000000000000000 ) ) ;
#965 = DIRECTION ( 'NONE',  ( 0.000000000000000000, 0.000000000000000000, -1.000000000000000000 ) ) ;
#966 = VERTEX_POINT ( 'NONE', #932 ) ;
#967 = DIRECTION ( 'NONE',  ( 1.000000000000000000, 0.000000000000000000, 0.000000000000000000 ) ) ;
#968 = EDGE_CURVE ( 'NONE', #405, #446, #680, .T. ) ;
#969 = ORIENTED_EDGE ( 'NONE', *, *, #86, .F. ) ;
#970 = EDGE_CURVE ( 'NONE', #1149, #428, #211, .T. ) ;
#971 = CARTESIAN_POINT ( 'NONE',  ( 1.000000000000000000, -1.000000000000000000, 1.000000000000000888 ) ) ;
#972 =( NAMED_UNIT ( * ) SI_UNIT ( $, .STERADIAN. ) SOLID_ANGLE_UNIT ( ) );
#973 = ORIENTED_EDGE ( 'NONE', *, *, #355, .T. ) ;
#974 = PLANE ( 'NONE',  #875 ) ;
#975 = EDGE_LOOP ( 'NONE', ( #147, #907 ) ) ;
#976 = DIRECTION ( 'NONE',  ( -1.000000000000000000, 1.445602896647338917E-16, 0.000000000000000000 ) ) ;
#977 = CARTESIAN_POINT ( 'NONE',  ( 1.000000000000000000, 0.000000000000000000, 1.000000000000000888 ) ) ;
#978 = VECTOR ( 'NONE', #117, 1000.000000000000000 ) ;
#979 = VECTOR ( 'NONE', #229, 1000.000000000000000 ) ;
#980 = CARTESIAN_POINT ( 'NONE',  ( 0.000000000000000000, 0.000000000000000000, 23.00000000000000000 ) ) ;
#981 = ORIENTED_EDGE ( 'NONE', *, *, #371, .T. ) ;
#982 = EDGE_CURVE ( 'NONE', #392, #6, #855, .T. ) ;
#983 = VERTEX_POINT ( 'NONE', #300 ) ;
#984 = CIRCLE ( 'NONE', #961, 1.000000000000000000 ) ;
#985 = CIRCLE ( 'NONE', #765, 1.000000000000000888 ) ;
#986 = CARTESIAN_POINT ( 'NONE',  ( 5.999999999999998224, -7.999999999999998224, 3.500000000000000000 ) ) ;
#987 = DIRECTION ( 'NONE',  ( -1.445602896647338917E-16, -1.000000000000000000, 0.000000000000000000 ) ) ;
#988 = CARTESIAN_POINT ( 'NONE',  ( 4.000000000000000888, -8.000000000000000000, 23.00000000000000000 ) ) ;
#989 = VERTEX_POINT ( 'NONE', #177 ) ;
#990 = ORIENTED_EDGE ( 'NONE', *, *, #1130, .T. ) ;
#991 = EDGE_CURVE ( 'NONE', #543, #903, #388, .T. ) ;
#992 = DIRECTION ( 'NONE',  ( 1.000000000000000000, 0.000000000000000000, 0.000000000000000000 ) ) ;
#993 = CARTESIAN_POINT ( 'NONE',  ( 32.00000000000000000, -8.000000000000000000, 8.000000000000000000 ) ) ;
#994 = CARTESIAN_POINT ( 'NONE',  ( 1.000000000000000000, -16.00000000000000000, 23.00000000000000000 ) ) ;
#995 = ORIENTED_EDGE ( 'NONE', *, *, #672, .T. ) ;
#996 = ORIENTED_EDGE ( 'NONE', *, *, #487, .T. ) ;
#997 = EDGE_CURVE ( 'NONE', #916, #357, #267, .T. ) ;
#998 = CYLINDRICAL_SURFACE ( 'NONE', #1166, 1.000000000000000000 ) ;
#999 = CARTESIAN_POINT ( 'NONE',  ( 5.999999999999998224, -14.50000000000000000, 2.999999999999999112 ) ) ;
#1000 = VECTOR ( 'NONE', #452, 1000.000000000000000 ) ;
#1001 = ORIENTED_EDGE ( 'NONE', *, *, #156, .F. ) ;
#1002 = ORIENTED_EDGE ( 'NONE', *, *, #997, .T. ) ;
#1003 = DIRECTION ( 'NONE',  ( 0.000000000000000000, 0.000000000000000000, -1.000000000000000000 ) ) ;
#1004 = CARTESIAN_POINT ( 'NONE',  ( 32.00000000000000000, -8.000000000000000000, 23.00000000000000000 ) ) ;
#1005 = EDGE_LOOP ( 'NONE', ( #44, #78, #1163, #962 ) ) ;
#1006 = VERTEX_POINT ( 'NONE', #94 ) ;
#1007 = ORIENTED_EDGE ( 'NONE', *, *, #66, .T. ) ;
#1008 = EDGE_CURVE ( 'NONE', #1114, #626, #1078, .T. ) ;
#1009 = CARTESIAN_POINT ( 'NONE',  ( 1.000000000000000000, -1.000000000000000000, 0.000000000000000000 ) ) ;
#1010 = DIRECTION ( 'NONE',  ( 0.000000000000000000, 0.000000000000000000, -1.000000000000000000 ) ) ;
#1011 = ORIENTED_EDGE ( 'NONE', *, *, #487, .F. ) ;
#1012 = DIRECTION ( 'NONE',  ( -0.000000000000000000, 1.000000000000000000, -0.000000000000000000 ) ) ;
#1013 = DIRECTION ( 'NONE',  ( 0.000000000000000000, 0.000000000000000000, 1.000000000000000000 ) ) ;
#1014 = VECTOR ( 'NONE', #107, 1000.000000000000000 ) ;
#1015 = ADVANCED_FACE ( 'NONE', ( #183 ), #464, .F. ) ;
#1016 = VECTOR ( 'NONE', #1153, 1000.000000000000000 ) ;
#1017 = ORIENTED_EDGE ( 'NONE', *, *, #99, .T. ) ;
#1018 = DIRECTION ( 'NONE',  ( 0.000000000000000000, 0.000000000000000000, -1.000000000000000000 ) ) ;
#1019 = FACE_OUTER_BOUND ( 'NONE', #693, .T. ) ;
#1020 = VECTOR ( 'NONE', #676, 1000.000000000000000 ) ;
#1021 = ORIENTED_EDGE ( 'NONE', *, *, #271, .T. ) ;
#1022 = DIRECTION ( 'NONE',  ( 0.000000000000000000, 0.000000000000000000, -1.000000000000000000 ) ) ;
#1023 = CARTESIAN_POINT ( 'NONE',  ( 24.00000000000000000, -11.00000000000000178, 3.000000000000000000 ) ) ;
#1024 = LINE ( 'NONE', #745, #757 ) ;
#1025 = ORIENTED_EDGE ( 'NONE', *, *, #750, .F. ) ;
#1026 = EDGE_CURVE ( 'NONE', #293, #1195, #19, .T. ) ;
#1027 = DIRECTION ( 'NONE',  ( 0.000000000000000000, 0.000000000000000000, -1.000000000000000000 ) ) ;
#1028 = FACE_OUTER_BOUND ( 'NONE', #728, .T. ) ;
#1029 = DIRECTION ( 'NONE',  ( -0.000000000000000000, -0.000000000000000000, -1.000000000000000000 ) ) ;
#1030 = DIRECTION ( 'NONE',  ( 1.000000000000000000, 0.000000000000000000, 0.000000000000000000 ) ) ;
#1031 = VECTOR ( 'NONE', #307, 1000.000000000000000 ) ;
#1032 = ORIENTED_EDGE ( 'NONE', *, *, #845, .T. ) ;
#1033 = CARTESIAN_POINT ( 'NONE',  ( 5.000000000000000888, -8.000000000000000000, 8.000000000000000000 ) ) ;
#1034 = CARTESIAN_POINT ( 'NONE',  ( 30.00000000000000000, -8.000000000000000000, 3.500000000000000000 ) ) ;
#1035 = DIRECTION ( 'NONE',  ( -0.000000000000000000, -0.000000000000000000, -1.000000000000000000 ) ) ;
#1036 = LINE ( 'NONE', #204, #914 ) ;
#1037 = VECTOR ( 'NONE', #545, 1000.000000000000000 ) ;
#1038 = VERTEX_POINT ( 'NONE', #282 ) ;
#1039 = CARTESIAN_POINT ( 'NONE',  ( 5.999999999999998224, -7.999999999999998224, 3.500000000000000000 ) ) ;
#1040 = DIRECTION ( 'NONE',  ( 1.000000000000000000, 0.000000000000000000, 0.000000000000000000 ) ) ;
#1041 = EDGE_CURVE ( 'NONE', #1061, #1038, #196, .T. ) ;
#1042 = CARTESIAN_POINT ( 'NONE',  ( 5.999999999999998224, -14.50000000000000000, 23.00000000000000000 ) ) ;
#1043 = APPLICATION_CONTEXT ( 'automotive_design' ) ;
#1044 = EDGE_LOOP ( 'NONE', ( #1021, #878, #1129, #617 ) ) ;
#1045 = DIRECTION ( 'NONE',  ( -0.000000000000000000, -0.000000000000000000, -1.000000000000000000 ) ) ;
#1046 = DIRECTION ( 'NONE',  ( 1.000000000000000000, 0.000000000000000000, 0.000000000000000000 ) ) ;
#1047 = DIRECTION ( 'NONE',  ( 0.000000000000000000, 0.000000000000000000, -1.000000000000000000 ) ) ;
#1048 = MECHANICAL_DESIGN_GEOMETRIC_PRESENTATION_REPRESENTATION (  '', ( #356 ), #436 ) ;
#1049 = EDGE_CURVE ( 'NONE', #902, #561, #950, .T. ) ;
#1050 = VERTEX_POINT ( 'NONE', #767 ) ;
#1051 = CIRCLE ( 'NONE', #1181, 2.999999999999995559 ) ;
#1052 = DIRECTION ( 'NONE',  ( -1.000000000000000000, 0.000000000000000000, 0.000000000000000000 ) ) ;
#1053 = CARTESIAN_POINT ( 'NONE',  ( 30.00000000000000000, -1.500000000000001110, 23.00000000000000000 ) ) ;
#1054 = CYLINDRICAL_SURFACE ( 'NONE', #134, 1.000000000000000000 ) ;
#1055 = ADVANCED_FACE ( 'NONE', ( #1139 ), #583, .T. ) ;
#1056 = EDGE_CURVE ( 'NONE', #846, #1061, #171, .T. ) ;
#1057 = ORIENTED_EDGE ( 'NONE', *, *, #156, .T. ) ;
#1058 = CIRCLE ( 'NONE', #531, 1.000000000000000000 ) ;
#1059 = CARTESIAN_POINT ( 'NONE',  ( 11.99999999999999645, -5.000000000000000000, 3.000000000000000000 ) ) ;
#1060 = FACE_OUTER_BOUND ( 'NONE', #328, .T. ) ;
#1061 = VERTEX_POINT ( 'NONE', #772 ) ;
#1062 = CARTESIAN_POINT ( 'NONE',  ( 5.999999999999998224, -7.999999999999998224, 2.999999999999999112 ) ) ;
#1063 = EDGE_LOOP ( 'NONE', ( #448, #127, #687, #32, #827, #935 ) ) ;
#1064 = CARTESIAN_POINT ( 'NONE',  ( 5.999999999999998224, -7.999999999999998224, 2.999999999999999112 ) ) ;
#1065 = LINE ( 'NONE', #867, #879 ) ;
#1066 = EDGE_CURVE ( 'NONE', #1195, #791, #1145, .T. ) ;
#1067 = FACE_BOUND ( 'NONE', #822, .T. ) ;
#1068 = PRODUCT_DEFINITION_SHAPE ( 'NONE', 'NONE',  #253 ) ;
#1069 = VECTOR ( 'NONE', #823, 1000.000000000000000 ) ;
#1070 = ORIENTED_EDGE ( 'NONE', *, *, #863, .F. ) ;
#1071 = COLOUR_RGB ( '',1.000000000000000000, 1.000000000000000000, 1.000000000000000000 ) ;
#1072 = CARTESIAN_POINT ( 'NONE',  ( 0.000000000000000000, 0.000000000000000000, 0.000000000000000000 ) ) ;
#1073 = DIRECTION ( 'NONE',  ( 1.000000000000000000, 0.000000000000000000, 0.000000000000000000 ) ) ;
#1074 = AXIS2_PLACEMENT_3D ( 'NONE', #100, #281, #651 ) ;
#1075 = CIRCLE ( 'NONE', #780, 1.000000000000000000 ) ;
#1076 = LINE ( 'NONE', #868, #286 ) ;
#1077 = ORIENTED_EDGE ( 'NONE', *, *, #991, .F. ) ;
#1078 = CIRCLE ( 'NONE', #83, 1.000000000000000888 ) ;
#1079 = DIRECTION ( 'NONE',  ( 1.000000000000000000, -0.000000000000000000, 0.000000000000000000 ) ) ;
#1080 = LINE ( 'NONE', #1053, #190 ) ;
#1081 = CARTESIAN_POINT ( 'NONE',  ( 3.000000000000000888, -8.000000000000000000, 8.000000000000000000 ) ) ;
#1082 = EDGE_CURVE ( 'NONE', #1038, #846, #590, .T. ) ;
#1083 = ADVANCED_FACE ( 'NONE', ( #1028 ), #945, .T. ) ;
#1084 = EDGE_LOOP ( 'NONE', ( #798, #1154, #973, #870 ) ) ;
#1085 = DIRECTION ( 'NONE',  ( 0.000000000000000000, 0.000000000000000000, -1.000000000000000000 ) ) ;
#1086 = MECHANICAL_DESIGN_GEOMETRIC_PRESENTATION_REPRESENTATION (  '', ( #751 ), #1142 ) ;
#1087 = DIRECTION ( 'NONE',  ( 0.000000000000000000, 0.000000000000000000, -1.000000000000000000 ) ) ;
#1088 = ORIENTED_EDGE ( 'NONE', *, *, #1026, .T. ) ;
#1089 = ORIENTED_EDGE ( 'NONE', *, *, #495, .T. ) ;
#1090 = CARTESIAN_POINT ( 'NONE',  ( 24.00000000000000000, -5.000000000000000888, 3.000000000000000000 ) ) ;
#1091 = DIRECTION ( 'NONE',  ( 1.000000000000000000, 0.000000000000000000, 0.000000000000000000 ) ) ;
#1092 = AXIS2_PLACEMENT_3D ( 'NONE', #1140, #185, #4 ) ;
#1093 = EDGE_LOOP ( 'NONE', ( #613, #752, #453, #1170, #620, #20 ) ) ;
#1094 = EDGE_CURVE ( 'NONE', #239, #806, #427, .T. ) ;
#1095 = ORIENTED_EDGE ( 'NONE', *, *, #750, .T. ) ;
#1096 = EDGE_CURVE ( 'NONE', #2, #152, #664, .T. ) ;
#1097 = ORIENTED_EDGE ( 'NONE', *, *, #642, .F. ) ;
#1098 = SURFACE_STYLE_FILL_AREA ( #244 ) ;
#1099 =( LENGTH_UNIT ( ) NAMED_UNIT ( * ) SI_UNIT ( .MILLI., .METRE. ) );
#1100 = AXIS2_PLACEMENT_3D ( 'NONE', #578, #101, #8 ) ;
#1101 = CARTESIAN_POINT ( 'NONE',  ( 0.000000000000000000, -16.00000000000000000, 23.00000000000000000 ) ) ;
#1102 = ORIENTED_EDGE ( 'NONE', *, *, #493, .F. ) ;
#1103 = EDGE_LOOP ( 'NONE', ( #500, #65, #440, #313, #534, #526 ) ) ;
#1104 = CARTESIAN_POINT ( 'NONE',  ( 34.99999999999999289, -1.000000000000000000, 1.000000000000000000 ) ) ;
#1105 = DIRECTION ( 'NONE',  ( 0.000000000000000000, 0.000000000000000000, -1.000000000000000000 ) ) ;
#1106 = EDGE_CURVE ( 'NONE', #903, #538, #1058, .T. ) ;
#1107 = EDGE_LOOP ( 'NONE', ( #478, #653, #451, #720 ) ) ;
#1108 = ORIENTED_EDGE ( 'NONE', *, *, #831, .T. ) ;
#1109 = DIRECTION ( 'NONE',  ( 1.000000000000000000, 0.000000000000000000, 0.000000000000000000 ) ) ;
#1110 = CARTESIAN_POINT ( 'NONE',  ( 32.00000000000000000, -8.000000000000000000, 8.000000000000000000 ) ) ;
#1111 = AXIS2_PLACEMENT_3D ( 'NONE', #971, #885, #123 ) ;
#1112 = VERTEX_POINT ( 'NONE', #977 ) ;
#1113 = AXIS2_PLACEMENT_3D ( 'NONE', #1138, #675, #201 ) ;
#1114 = VERTEX_POINT ( 'NONE', #416 ) ;
#1115 = CARTESIAN_POINT ( 'NONE',  ( 31.00000000000000000, -8.000000000000000000, 8.000000000000000000 ) ) ;
#1116 = DIRECTION ( 'NONE',  ( -0.000000000000000000, -0.000000000000000000, 1.000000000000000000 ) ) ;
#1117 = EDGE_CURVE ( 'NONE', #514, #607, #1080, .T. ) ;
#1118 = EDGE_LOOP ( 'NONE', ( #756, #797, #1001, #1011 ) ) ;
#1119 = FACE_BOUND ( 'NONE', #603, .T. ) ;
#1120 = DIRECTION ( 'NONE',  ( -0.000000000000000000, 0.000000000000000000, 1.000000000000000000 ) ) ;
#1121 = CARTESIAN_POINT ( 'NONE',  ( 34.99999999999999289, -15.00000000000000000, 1.000000000000000000 ) ) ;
#1122 = ORIENTED_EDGE ( 'NONE', *, *, #449, .T. ) ;
#1123 = CARTESIAN_POINT ( 'NONE',  ( 32.99999999999999289, -8.000000000000000000, 0.000000000000000000 ) ) ;
#1124 = ORIENTED_EDGE ( 'NONE', *, *, #243, .F. ) ;
#1125 = DIRECTION ( 'NONE',  ( 1.000000000000000000, 0.000000000000000000, 0.000000000000000000 ) ) ;
#1126 = FACE_OUTER_BOUND ( 'NONE', #1084, .T. ) ;
#1127 = AXIS2_PLACEMENT_3D ( 'NONE', #753, #175, #669 ) ;
#1128 = CIRCLE ( 'NONE', #564, 1.000000000000000000 ) ;
#1129 = ORIENTED_EDGE ( 'NONE', *, *, #403, .T. ) ;
#1130 = EDGE_CURVE ( 'NONE', #28, #13, #408, .T. ) ;
#1131 = CARTESIAN_POINT ( 'NONE',  ( 0.000000000000000000, -15.00000000000000000, 0.000000000000000000 ) ) ;
#1132 = DIRECTION ( 'NONE',  ( 0.000000000000000000, -0.000000000000000000, 1.000000000000000000 ) ) ;
#1133 = CYLINDRICAL_SURFACE ( 'NONE', #1151, 2.999999999999995559 ) ;
#1134 = CARTESIAN_POINT ( 'NONE',  ( 11.99999999999999645, -11.00000000000000000, 3.000000000000000000 ) ) ;
#1135 = VECTOR ( 'NONE', #729, 1000.000000000000000 ) ;
#1136 = AXIS2_PLACEMENT_3D ( 'NONE', #349, #1116, #91 ) ;
#1137 = EDGE_LOOP ( 'NONE', ( #362, #266, #224, #591, #783, #683, #815, #581 ) ) ;
#1138 = CARTESIAN_POINT ( 'NONE',  ( 0.000000000000000000, 0.000000000000000000, 23.00000000000000000 ) ) ;
#1139 = FACE_OUTER_BOUND ( 'NONE', #421, .T. ) ;
#1140 = CARTESIAN_POINT ( 'NONE',  ( 30.00000000000000000, -8.000000000000000000, 2.999999999999999112 ) ) ;
#1141 = ADVANCED_FACE ( 'NONE', ( #522 ), #516, .F. ) ;
#1142 =( GEOMETRIC_REPRESENTATION_CONTEXT ( 3 ) GLOBAL_UNCERTAINTY_ASSIGNED_CONTEXT ( ( #30 ) ) GLOBAL_UNIT_ASSIGNED_CONTEXT ( ( #1099, #170, #734 ) ) REPRESENTATION_CONTEXT ( 'NONE', 'WORKASPACE' ) );
#1143 = ORIENTED_EDGE ( 'NONE', *, *, #1094, .T. ) ;
#1144 = CARTESIAN_POINT ( 'NONE',  ( 0.000000000000000000, -1.000000000000000000, 1.000000000000000888 ) ) ;
#1145 = LINE ( 'NONE', #746, #327 ) ;
#1146 = CARTESIAN_POINT ( 'NONE',  ( 5.999999999999998224, -5.000000000000004441, 2.999999999999999112 ) ) ;
#1147 = DIRECTION ( 'NONE',  ( -1.000000000000000000, 0.000000000000000000, 0.000000000000000000 ) ) ;
#1148 = ADVANCED_FACE ( 'NONE', ( #1157 ), #208, .T. ) ;
#1149 = VERTEX_POINT ( 'NONE', #228 ) ;
#1150 = AXIS2_PLACEMENT_3D ( 'NONE', #255, #549, #79 ) ;
#1151 = AXIS2_PLACEMENT_3D ( 'NONE', #184, #197, #465 ) ;
#1152 = CYLINDRICAL_SURFACE ( 'NONE', #892, 1.000000000000000888 ) ;
#1153 = DIRECTION ( 'NONE',  ( -0.000000000000000000, 0.000000000000000000, -1.000000000000000000 ) ) ;
#1154 = ORIENTED_EDGE ( 'NONE', *, *, #528, .T. ) ;
#1155 = EDGE_CURVE ( 'NONE', #561, #444, #1065, .T. ) ;
#1156 = DIRECTION ( 'NONE',  ( 0.000000000000000000, 0.000000000000000000, 1.000000000000000000 ) ) ;
#1157 = FACE_OUTER_BOUND ( 'NONE', #834, .T. ) ;
#1158 = LINE ( 'NONE', #994, #1016 ) ;
#1159 = VERTEX_POINT ( 'NONE', #305 ) ;
#1160 = LINE ( 'NONE', #964, #391 ) ;
#1161 = DIRECTION ( 'NONE',  ( 0.000000000000000000, 0.000000000000000000, -1.000000000000000000 ) ) ;
#1162 = DIRECTION ( 'NONE',  ( -0.000000000000000000, 0.000000000000000000, 1.000000000000000000 ) ) ;
#1163 = ORIENTED_EDGE ( 'NONE', *, *, #1155, .F. ) ;
#1164 = EDGE_CURVE ( 'NONE', #989, #230, #686, .T. ) ;
#1165 = DIRECTION ( 'NONE',  ( -0.000000000000000000, -0.000000000000000000, 1.000000000000000000 ) ) ;
#1166 = AXIS2_PLACEMENT_3D ( 'NONE', #730, #818, #164 ) ;
#1167 = AXIS2_PLACEMENT_3D ( 'NONE', #610, #1162, #143 ) ;
#1168 = CARTESIAN_POINT ( 'NONE',  ( 5.000000000000000888, -8.000000000000000000, 8.000000000000000000 ) ) ;
#1169 = ADVANCED_FACE ( 'NONE', ( #215 ), #312, .T. ) ;
#1170 = ORIENTED_EDGE ( 'NONE', *, *, #835, .F. ) ;
#1171 = VECTOR ( 'NONE', #248, 1000.000000000000000 ) ;
#1172 = DIRECTION ( 'NONE',  ( 1.000000000000000000, 0.000000000000000000, 0.000000000000000000 ) ) ;
#1173 = LINE ( 'NONE', #980, #339 ) ;
#1174 = ORIENTED_EDGE ( 'NONE', *, *, #953, .F. ) ;
#1175 = VERTEX_POINT ( 'NONE', #886 ) ;
#1176 = CARTESIAN_POINT ( 'NONE',  ( 34.99999999999999289, -16.00000000000000000, 23.00000000000000000 ) ) ;
#1177 = CARTESIAN_POINT ( 'NONE',  ( 5.999999999999998224, -7.999999999999998224, 0.000000000000000000 ) ) ;
#1178 = ORIENTED_EDGE ( 'NONE', *, *, #43, .T. ) ;
#1179 = ADVANCED_FACE ( 'NONE', ( #317 ), #873, .F. ) ;
#1180 = LINE ( 'NONE', #154, #376 ) ;
#1181 = AXIS2_PLACEMENT_3D ( 'NONE', #665, #470, #369 ) ;
#1182 = CARTESIAN_POINT ( 'NONE',  ( 32.99999999999999289, -8.000000000000000000, 3.500000000000000000 ) ) ;
#1183 = VECTOR ( 'NONE', #151, 1000.000000000000000 ) ;
#1184 = ORIENTED_EDGE ( 'NONE', *, *, #528, .F. ) ;
#1185 = ORIENTED_EDGE ( 'NONE', *, *, #642, .T. ) ;
#1186 = ADVANCED_FACE ( 'NONE', ( #1060 ), #602, .T. ) ;
#1187 = CARTESIAN_POINT ( 'NONE',  ( 5.999999999999998224, -10.99999999999999289, 3.500000000000000000 ) ) ;
#1188 = VECTOR ( 'NONE', #698, 1000.000000000000000 ) ;
#1189 = CARTESIAN_POINT ( 'NONE',  ( 1.000000000000000000, -1.000000000000000000, 23.00000000000000000 ) ) ;
#1190 = ORIENTED_EDGE ( 'NONE', *, *, #838, .T. ) ;
#1191 = CARTESIAN_POINT ( 'NONE',  ( 0.000000000000000000, -1.000000000000000000, 23.00000000000000000 ) ) ;
#1192 = DIRECTION ( 'NONE',  ( -0.000000000000000000, 1.000000000000000000, 0.000000000000000000 ) ) ;
#1193 = CARTESIAN_POINT ( 'NONE',  ( 34.99999999999999289, 0.000000000000000000, 1.000000000000000888 ) ) ;
#1194 = PRODUCT_DEFINITION_FORMATION_WITH_SPECIFIED_SOURCE ( '任何', '', #233, .NOT_KNOWN. ) ;
#1195 = VERTEX_POINT ( 'NONE', #891 ) ;
#1196 = EDGE_LOOP ( 'NONE', ( #337, #674, #321, #510 ) ) ;
#1197 = DIRECTION ( 'NONE',  ( -0.000000000000000000, -0.000000000000000000, -1.000000000000000000 ) ) ;
#1198 = FACE_OUTER_BOUND ( 'NONE', #249, .T. ) ;
#1199 = EDGE_CURVE ( 'NONE', #241, #1038, #400, .T. ) ;
#1200 = CIRCLE ( 'NONE', #832, 1.000000000000000888 ) ;
#1201 = ADVANCED_BREP_SHAPE_REPRESENTATION ( '零件3', ( #458, #947 ), #888 ) ;
#1202 = ORIENTED_EDGE ( 'NONE', *, *, #168, .F. ) ;
#1203 = CYLINDRICAL_SURFACE ( 'NONE', #359, 1.000000000000000000 ) ;
#1204 = CARTESIAN_POINT ( 'NONE',  ( 30.00000000000000000, -1.500000000000001110, 3.500000000000000000 ) ) ;
#1205 = DIRECTION ( 'NONE',  ( -1.000000000000000000, 7.228014483236694583E-17, 0.000000000000000000 ) ) ;
#1206 = CARTESIAN_POINT ( 'NONE',  ( 1.000000000000000000, -15.00000000000000000, 1.000000000000000000 ) ) ;
#1207 = PRODUCT_RELATED_PRODUCT_CATEGORY ( 'part', '', ( #233 ) ) ;
#1208 = VERTEX_POINT ( 'NONE', #52 ) ;
ENDSEC;
END-ISO-10303-21;
